<svg width="22" height="22" viewBox="0 0 22 22" fill="none" xmlns="http://www.w3.org/2000/svg">
<path d="M16.9583 18.3333C16.9583 18.4548 16.91 18.5714 16.824 18.6573C16.7381 18.7433 16.6215 18.7916 16.5 18.7916H11.671C11.5101 19.0703 11.2786 19.3017 10.9999 19.4626C10.7212 19.6235 10.4051 19.7082 10.0833 19.7083H10.0732C10.0593 19.8634 10.0307 20.0168 9.98796 20.1666H16.5C16.9862 20.1666 17.4525 19.9734 17.7963 19.6296C18.1401 19.2858 18.3333 18.8195 18.3333 18.3333V9.00892C18.3332 8.52273 18.14 8.05649 17.7961 7.71275L12.4529 2.37042C12.1066 2.03095 11.6425 1.83848 11.1576 1.83325H5.49996C5.01373 1.83325 4.54741 2.02641 4.2036 2.37022C3.85978 2.71404 3.66663 3.18036 3.66663 3.66659V10.1786C3.8854 10.115 4.11457 10.0833 4.35413 10.0833H5.04163V3.66659C5.04163 3.54503 5.08991 3.42845 5.17587 3.34249C5.26182 3.25654 5.3784 3.20825 5.49996 3.20825H11V7.33325C11 7.81948 11.1931 8.2858 11.5369 8.62961C11.8807 8.97343 12.3471 9.16659 12.8333 9.16659H16.9583V18.3333ZM12.375 4.23584L15.9298 7.79159H12.8333C12.7117 7.79159 12.5952 7.7433 12.5092 7.65734C12.4232 7.57139 12.375 7.45481 12.375 7.33325V4.23584ZM2.74996 12.6041C2.74996 11.7186 3.46863 10.9999 4.35413 10.9999H7.56246C8.44796 10.9999 9.16663 11.7186 9.16663 12.6041V13.2916H9.62496C9.98963 13.2916 10.3394 13.4365 10.5972 13.6943C10.8551 13.9522 11 14.3019 11 14.6666V17.8749C11 18.118 10.9034 18.3512 10.7315 18.5231C10.5596 18.695 10.3264 18.7916 10.0833 18.7916H9.16663V19.4791C9.16663 19.9045 8.99762 20.3126 8.69678 20.6134C8.39594 20.9142 7.98791 21.0833 7.56246 21.0833H4.35413C3.92867 21.0833 3.52065 20.9142 3.21981 20.6134C2.91897 20.3126 2.74996 19.9045 2.74996 19.4791V18.7916H1.83329C1.59018 18.7916 1.35702 18.695 1.18511 18.5231C1.0132 18.3512 0.916626 18.118 0.916626 17.8749V14.6666C0.916626 14.3019 1.06149 13.9522 1.31935 13.6943C1.57722 13.4365 1.92695 13.2916 2.29163 13.2916H2.74996V12.6041ZM7.79163 12.6041C7.79163 12.5433 7.76748 12.485 7.7245 12.442C7.68153 12.3991 7.62324 12.3749 7.56246 12.3749H4.35413C4.29335 12.3749 4.23506 12.3991 4.19208 12.442C4.1491 12.485 4.12496 12.5433 4.12496 12.6041V13.2916H7.79163V12.6041ZM4.12496 17.6458V19.4791C4.12496 19.6056 4.22763 19.7083 4.35413 19.7083H7.56246C7.62324 19.7083 7.68153 19.6841 7.7245 19.6411C7.76748 19.5982 7.79163 19.5399 7.79163 19.4791V17.6458C7.79163 17.585 7.76748 17.5267 7.7245 17.4837C7.68153 17.4407 7.62324 17.4166 7.56246 17.4166H4.35413C4.29335 17.4166 4.23506 17.4407 4.19208 17.4837C4.1491 17.5267 4.12496 17.585 4.12496 17.6458Z" fill="#F6822B"/>
</svg>
