<svg width="67" height="67" viewBox="0 0 67 67" fill="none" xmlns="http://www.w3.org/2000/svg">
<g filter="url(#filter0_d_1588_9015)">
<circle cx="33.5" cy="29.5" r="29.5" fill="#FF7A00"/>
</g>
<path d="M33.625 27.8125C33.625 27.2947 34.0448 26.875 34.5625 26.875H38.9375C39.4552 26.875 39.875 27.2947 39.875 27.8125C39.875 28.3302 39.4552 28.75 38.9375 28.75H34.5625C34.0448 28.75 33.625 28.3302 33.625 27.8125ZM34.5626 33.75C34.0448 33.75 33.6251 34.1698 33.6251 34.6875C33.6251 35.2052 34.0448 35.625 34.5626 35.625H38.9374C39.4553 35.625 39.8749 35.2052 39.8749 34.6875C39.8749 34.1698 39.4553 33.75 38.9374 33.75H34.5626ZM31.4754 27.2254C31.8415 26.8593 31.8415 26.2657 31.4754 25.8996C31.1093 25.5335 30.5158 25.5335 30.1496 25.8996L28.3125 27.7366L27.7254 27.1496C27.3593 26.7835 26.7657 26.7835 26.3996 27.1496C26.0335 27.5157 26.0335 28.1093 26.3996 28.4754L27.6496 29.7254C28.0157 30.0915 28.6093 30.0915 28.9754 29.7254L31.4754 27.2254ZM31.4754 32.7746C31.8415 33.1407 31.8415 33.7343 31.4754 34.1004L28.9754 36.6004C28.6093 36.9665 28.0157 36.9665 27.6496 36.6004L26.3996 35.3504C26.0335 34.9843 26.0335 34.3907 26.3996 34.0246C26.7657 33.6585 27.3593 33.6585 27.7254 34.0246L28.3125 34.6116L30.1496 32.7746C30.5158 32.4085 31.1093 32.4085 31.4754 32.7746ZM37.9925 20.1056C37.8866 18.6489 36.6713 17.5 35.1875 17.5H30.8125C29.3651 17.5 28.173 18.5934 28.0172 19.9993L25.8125 20C24.2592 20 23 21.2592 23 22.8125V39.6875C23 41.2407 24.2592 42.5 25.8125 42.5H40.1875C41.7407 42.5 43 41.2407 43 39.6875V22.8125C43 21.2592 41.7407 20 40.1875 20L37.9827 19.9993C37.9866 20.0345 37.9899 20.07 37.9925 20.1056ZM37.9935 20.1199L38 20.3125C38 20.2478 37.9979 20.1836 37.9935 20.1199ZM30.8125 23.125H35.1875C36.1625 23.125 37.0218 22.6288 37.5263 21.8752L40.1875 21.875C40.7052 21.875 41.125 22.2947 41.125 22.8125V39.6875C41.125 40.2052 40.7052 40.625 40.1875 40.625H25.8125C25.2947 40.625 24.875 40.2052 24.875 39.6875V22.8125C24.875 22.2947 25.2947 21.875 25.8125 21.875L28.4738 21.8752C28.9783 22.6289 29.8375 23.125 30.8125 23.125ZM30.8125 19.375H35.1875C35.7052 19.375 36.125 19.7947 36.125 20.3125C36.125 20.8303 35.7052 21.25 35.1875 21.25H30.8125C30.2947 21.25 29.875 20.8303 29.875 20.3125C29.875 19.7947 30.2947 19.375 30.8125 19.375Z" fill="white"/>
<defs>
<filter id="filter0_d_1588_9015" x="0" y="0" width="67" height="67" filterUnits="userSpaceOnUse" color-interpolation-filters="sRGB">
<feFlood flood-opacity="0" result="BackgroundImageFix"/>
<feColorMatrix in="SourceAlpha" type="matrix" values="0 0 0 0 0 0 0 0 0 0 0 0 0 0 0 0 0 0 127 0" result="hardAlpha"/>
<feOffset dy="4"/>
<feGaussianBlur stdDeviation="2"/>
<feComposite in2="hardAlpha" operator="out"/>
<feColorMatrix type="matrix" values="0 0 0 0 0 0 0 0 0 0 0 0 0 0 0 0 0 0 0.25 0"/>
<feBlend mode="normal" in2="BackgroundImageFix" result="effect1_dropShadow_1588_9015"/>
<feBlend mode="normal" in="SourceGraphic" in2="effect1_dropShadow_1588_9015" result="shape"/>
</filter>
</defs>
</svg>
