<svg width="22" height="22" viewBox="0 0 22 22" fill="none" xmlns="http://www.w3.org/2000/svg">
<g clip-path="url(#clip0_2381_23503)">
<path fill-rule="evenodd" clip-rule="evenodd" d="M15.8125 9.8175C15.812 8.8077 15.4412 7.83315 14.7702 7.0785L11.5431 3.44712C11.1562 3.01176 10.6814 2.66328 10.1501 2.42463C9.61871 2.18598 9.04285 2.06256 8.46037 2.0625H5.5C4.40598 2.0625 3.35677 2.4971 2.58318 3.27068C1.8096 4.04427 1.375 5.09348 1.375 6.1875V15.8125C1.375 16.9065 1.8096 17.9557 2.58318 18.7293C3.35677 19.5029 4.40598 19.9375 5.5 19.9375H14.0938C14.3673 19.9375 14.6296 19.8288 14.823 19.6355C15.0163 19.4421 15.125 19.1798 15.125 18.9062C15.125 18.6327 15.0163 18.3704 14.823 18.177C14.6296 17.9837 14.3673 17.875 14.0938 17.875H5.5C4.95299 17.875 4.42839 17.6577 4.04159 17.2709C3.6548 16.8841 3.4375 16.3595 3.4375 15.8125V6.1875C3.4375 5.64049 3.6548 5.11589 4.04159 4.72909C4.42839 4.3423 4.95299 4.125 5.5 4.125H7.5625V6.875C7.5625 7.96902 7.9971 9.01823 8.77068 9.79182C9.54427 10.5654 10.5935 11 11.6875 11H14.7812C15.0548 11 15.3171 10.8914 15.5105 10.698C15.7038 10.5046 15.8125 10.2423 15.8125 9.96875V9.8175ZM13.552 8.9375H11.6875C11.1405 8.9375 10.6159 8.7202 10.2291 8.33341C9.8423 7.94661 9.625 7.42201 9.625 6.875V4.48525C9.7625 4.57967 9.88808 4.69012 10.0017 4.81663L13.2275 8.448C13.358 8.59494 13.4668 8.75977 13.5506 8.9375M18.48 15.125L17.49 16.115C17.3916 16.2102 17.313 16.324 17.2591 16.4498C17.2051 16.5757 17.1767 16.711 17.1756 16.848C17.1744 16.9849 17.2006 17.1207 17.2525 17.2474C17.3044 17.3741 17.381 17.4892 17.4779 17.586C17.5748 17.6828 17.69 17.7593 17.8167 17.8111C17.9435 17.8629 18.0793 17.8889 18.2162 17.8876C18.3531 17.8864 18.4885 17.8579 18.6142 17.8038C18.74 17.7497 18.8538 17.671 18.9489 17.5725L21.6989 14.8225C21.892 14.6291 22.0005 14.367 22.0005 14.0938C22.0005 13.8205 21.892 13.5584 21.6989 13.365L18.9489 10.615C18.8545 10.5137 18.7406 10.4324 18.6141 10.3761C18.4876 10.3197 18.3511 10.2894 18.2126 10.2869C18.0741 10.2845 17.9366 10.31 17.8082 10.3618C17.6798 10.4137 17.5631 10.4909 17.4652 10.5888C17.3673 10.6867 17.2901 10.8034 17.2382 10.9318C17.1863 11.0602 17.1609 11.1978 17.1633 11.3362C17.1658 11.4747 17.1961 11.6112 17.2524 11.7377C17.3088 11.8642 17.3901 11.9781 17.4914 12.0725L18.4814 13.0625H9.28125C9.00775 13.0625 8.74544 13.1712 8.55205 13.3645C8.35865 13.5579 8.25 13.8202 8.25 14.0938C8.25 14.3673 8.35865 14.6296 8.55205 14.823C8.74544 15.0163 9.00775 15.125 9.28125 15.125H18.48Z" fill="#F6822B"/>
</g>
<defs>
<clipPath id="clip0_2381_23503">
<rect width="22" height="22" fill="white"/>
</clipPath>
</defs>
</svg>
