<svg width="25" height="24" viewBox="0 0 25 24" fill="none" xmlns="http://www.w3.org/2000/svg">
<path d="M11.0488 6.50102C11.0488 3.63199 13.2455 1.27605 16.0488 1.02344V6.79387L14.4024 5.14742C14.2071 4.95216 13.8905 4.95216 13.6952 5.14742C13.5 5.34269 13.5 5.65927 13.6952 5.85453L16.1952 8.35453C16.3905 8.54979 16.7071 8.54979 16.9024 8.35453L19.4024 5.85453C19.5976 5.65927 19.5976 5.34269 19.4024 5.14742C19.2071 4.95216 18.8905 4.95216 18.6952 5.14742L17.0488 6.79387V1.02344C19.852 1.27605 22.0488 3.63199 22.0488 6.50102C22.0488 9.53858 19.5864 12.001 16.5488 12.001C13.5112 12.001 11.0488 9.53858 11.0488 6.50102ZM19.5488 9.50098C19.5488 9.22483 19.3249 9.00098 19.0488 9.00098H14.0488C13.7727 9.00098 13.5488 9.22483 13.5488 9.50098C13.5488 9.77712 13.7727 10.001 14.0488 10.001H19.0488C19.3249 10.001 19.5488 9.77712 19.5488 9.50098ZM6.29883 4.00098H10.547C10.3492 4.47515 10.206 4.97776 10.1252 5.50098H6.29883C5.33233 5.50098 4.54883 6.28448 4.54883 7.25098V8.00098H10.2227C10.3474 8.52875 10.5364 9.03166 10.781 9.50098H4.54883V14.001H9.10652C9.48887 14.001 9.79883 14.3109 9.79883 14.6933V14.751C9.79883 15.9936 10.8062 17.001 12.0488 17.001C13.2914 17.001 14.2988 15.9936 14.2988 14.751V14.6933C14.2988 14.3109 14.6088 14.001 14.9911 14.001H19.5488V12.2688C20.0998 11.9816 20.6045 11.6177 21.0488 11.1914V18.751C21.0488 20.5459 19.5937 22.001 17.7988 22.001H6.29883C4.50391 22.001 3.04883 20.5459 3.04883 18.751V7.25098C3.04883 5.45605 4.5039 4.00098 6.29883 4.00098Z" fill="white"/>
</svg>
