<svg width="15" height="18" viewBox="0 0 15 18" fill="none" xmlns="http://www.w3.org/2000/svg">
<path d="M3.03255 4.27352C3.03255 3.81976 3.4004 3.4519 3.85417 3.4519H10.4271C10.8809 3.4519 11.2487 3.81976 11.2487 4.27352V5.91675C11.2487 6.37051 10.8809 6.73836 10.4271 6.73836H3.85417C3.4004 6.73836 3.03255 6.37051 3.03255 5.91675V4.27352ZM4.26497 5.50594H10.0163V4.68433H4.26497V5.50594ZM0.567707 3.0411C0.567707 1.90669 1.48733 0.987061 2.62174 0.987061H12.0703C13.2047 0.987061 14.1243 1.90669 14.1243 3.0411V14.7491C14.1243 15.0894 13.8484 15.3653 13.5081 15.3653H1.80013C1.80013 15.8191 2.16798 16.1869 2.62174 16.1869H13.5081C13.8484 16.1869 14.1243 16.4628 14.1243 16.8031C14.1243 17.1435 13.8484 17.4194 13.5081 17.4194H2.62174C1.48733 17.4194 0.567707 16.4997 0.567707 15.3653V3.0411ZM1.80013 14.1329H12.8919V3.0411C12.8919 2.58734 12.5241 2.21948 12.0703 2.21948H2.62174C2.16798 2.21948 1.80013 2.58734 1.80013 3.0411V14.1329Z" fill="white"/>
</svg>
