<svg width="20" height="20" viewBox="0 0 20 20" fill="none" xmlns="http://www.w3.org/2000/svg">
<path d="M3.28662 6.16272V2.46522C3.28662 2.2473 3.37319 2.03831 3.52728 1.88422C3.68137 1.73012 3.89037 1.64355 4.10829 1.64355H15.6116C15.8295 1.64355 16.0385 1.73012 16.1926 1.88422C16.3467 2.03831 16.4333 2.2473 16.4333 2.46522V17.2552C16.4333 17.4731 16.3467 17.6821 16.1926 17.8362C16.0385 17.9903 15.8295 18.0769 15.6116 18.0769H4.10829C3.89037 18.0769 3.68137 17.9903 3.52728 17.8362C3.37319 17.6821 3.28662 17.4731 3.28662 17.2552V13.5577" stroke="white" stroke-width="1.25" stroke-linecap="round" stroke-linejoin="round"/>
<path d="M12.7358 6.1626H13.9683M11.5033 9.44926H13.9683M11.5033 12.7359H13.9683" stroke="white" stroke-width="1.25" stroke-linecap="round"/>
<path d="M4.10831 8.6276L6.57331 11.0926M6.57331 8.6276L4.10831 11.0926M1.64331 6.1626H9.03831V13.5576H1.64331V6.1626Z" stroke="white" stroke-width="1.25" stroke-linecap="round" stroke-linejoin="round"/>
</svg>
