<svg width="20" height="20" viewBox="0 0 20 20" fill="none" xmlns="http://www.w3.org/2000/svg">
<path d="M7.5 14.1665V5.83317M7.5 14.1665C7.5 15.087 6.75381 15.8332 5.83333 15.8332H4.16667C3.24619 15.8332 2.5 15.087 2.5 14.1665V5.83317C2.5 4.9127 3.24619 4.1665 4.16667 4.1665H5.83333C6.75381 4.1665 7.5 4.9127 7.5 5.83317M7.5 14.1665C7.5 15.087 8.24619 15.8332 9.16667 15.8332H10.8333C11.7538 15.8332 12.5 15.087 12.5 14.1665M7.5 5.83317C7.5 4.9127 8.24619 4.1665 9.16667 4.1665H10.8333C11.7538 4.1665 12.5 4.9127 12.5 5.83317M12.5 14.1665V5.83317M12.5 14.1665C12.5 15.087 13.2462 15.8332 14.1667 15.8332H15.8333C16.7538 15.8332 17.5 15.087 17.5 14.1665V5.83317C17.5 4.9127 16.7538 4.1665 15.8333 4.1665H14.1667C13.2462 4.1665 12.5 4.9127 12.5 5.83317" stroke="white" stroke-width="1.5" stroke-linecap="round" stroke-linejoin="round"/>
</svg>
