<svg width="18" height="16" viewBox="0 0 18 16" fill="none" xmlns="http://www.w3.org/2000/svg">
<path d="M8.50781 0C9.51322 0 10.4915 0.172042 11.4238 0.512695C11.5569 0.561329 11.6891 0.613429 11.8203 0.668945L12.1953 0.837891C13.0588 1.25311 13.8463 1.81248 14.5244 2.49219C14.8158 2.78283 15.0849 3.09359 15.3301 3.42188C15.4118 3.53134 15.491 3.64261 15.5674 3.75586C15.8726 4.20867 16.1341 4.69089 16.3477 5.19629C16.4583 5.45879 16.5553 5.7252 16.6387 5.99512C16.7221 6.26518 16.7917 6.53877 16.8477 6.81543C16.9315 7.23022 16.9847 7.65183 17.0059 8.0791L17.0166 8.50879C17.0165 10.8711 16.0427 13.1047 14.333 14.7109C14.219 14.8181 14.102 14.923 13.9814 15.0244L13.9492 15.0508L13.8613 15.1113C13.8306 15.1289 13.7987 15.1442 13.7656 15.1562C13.6996 15.1804 13.6296 15.1933 13.5586 15.1934H3.45996C3.42442 15.1933 3.38918 15.1898 3.35449 15.1836L3.25293 15.1562C3.21985 15.1442 3.18791 15.1289 3.15723 15.1113L3.06934 15.0508L3.03711 15.0244C2.31356 14.4162 1.70577 13.7018 1.22852 12.9141C1.14905 12.7829 1.07313 12.6498 1.00098 12.5146C0.350992 11.2975 8.03415e-05 9.92631 0 8.50879L0.0107422 8.0791C0.0527277 7.22437 0.220695 6.39195 0.512695 5.59277L0.668945 5.19629C0.882471 4.69089 1.14396 4.20867 1.44922 3.75586C1.52557 3.64261 1.60477 3.53134 1.68652 3.42188C1.84998 3.203 2.02375 2.9916 2.20801 2.78906L2.49219 2.49219C2.61831 2.36577 2.74932 2.24487 2.88281 2.12695C3.46705 1.61086 4.1184 1.17589 4.82129 0.837891L5.19629 0.668945C5.32749 0.613429 5.45967 0.561329 5.59277 0.512695C6.52495 0.172097 7.50257 5.55198e-05 8.50781 0ZM8.15625 1.45117C7.92219 1.4626 7.69021 1.48562 7.46094 1.51953C7.3466 1.53644 7.23303 1.5567 7.12012 1.5791C5.87608 1.82595 4.72333 2.40357 3.76855 3.26953C3.68171 3.3483 3.59619 3.4292 3.5127 3.5127C3.42914 3.59613 3.34835 3.68175 3.26953 3.76855C2.40365 4.72218 1.82592 5.87449 1.5791 7.11914C1.55665 7.23236 1.53646 7.34627 1.51953 7.46094C1.48572 7.68987 1.46259 7.92151 1.45117 8.15527C1.44545 8.27244 1.44336 8.39065 1.44336 8.50879C1.44301 8.87922 1.47098 9.24826 1.52832 9.6123C1.6048 10.0979 1.73202 10.5748 1.9082 11.0352C1.95223 11.1502 1.99968 11.2641 2.0498 11.377C2.15013 11.6028 2.26184 11.8229 2.38477 12.0361C2.44617 12.1426 2.51032 12.2475 2.57715 12.3506C2.71075 12.5566 2.8554 12.7553 3.00977 12.9463C3.08711 13.042 3.1667 13.1359 3.24902 13.2275C3.33116 13.3189 3.41598 13.408 3.50293 13.4951L3.77148 13.75H13.2451L13.5156 13.4932C14.7432 12.2619 15.4718 10.6245 15.5635 8.88281L15.5732 8.50879C15.5732 8.39099 15.5711 8.2731 15.5654 8.15625C15.554 7.92219 15.531 7.69021 15.4971 7.46094C15.4802 7.3466 15.4599 7.23303 15.4375 7.12012C15.1907 5.87608 14.613 4.72333 13.7471 3.76855C13.6683 3.68171 13.5874 3.59619 13.5039 3.5127C13.4205 3.42914 13.3349 3.34835 13.248 3.26953C12.2944 2.40365 11.1421 1.82592 9.89746 1.5791C9.78424 1.55665 9.67033 1.53646 9.55566 1.51953C9.32673 1.48572 9.09509 1.46259 8.86133 1.45117C8.74416 1.44545 8.62595 1.44336 8.50781 1.44336C8.39018 1.44337 8.27294 1.44548 8.15625 1.45117ZM10.5762 5.8457L10.626 5.87793L11.1631 6.41602L11.1963 6.46582C11.2183 6.52062 11.2072 6.58578 11.1631 6.62988L9.55859 8.23438H9.55762V8.23535C9.60611 8.41552 9.60685 8.60492 9.55859 8.78516L9.51367 8.91699C9.47811 9.00277 9.43159 9.0836 9.375 9.15723L9.2832 9.26172C9.25849 9.28648 9.23201 9.3099 9.20508 9.33203C9.17827 9.35405 9.15087 9.37526 9.12207 9.39453C9.09306 9.41395 9.06305 9.43175 9.03223 9.44824L8.93848 9.49316L8.83984 9.52832C8.74002 9.55864 8.63596 9.5742 8.53125 9.57422L8.42676 9.56836C8.3576 9.56153 8.28916 9.54849 8.22266 9.52832L8.12402 9.49316L8.0293 9.44824C7.99873 9.43187 7.96922 9.41379 7.94043 9.39453C7.88263 9.35586 7.82866 9.31118 7.7793 9.26172C7.68052 9.16309 7.60231 9.04593 7.54883 8.91699C7.52209 8.85253 7.50186 8.78589 7.48828 8.71777C7.47469 8.64957 7.46777 8.57965 7.46777 8.50977C7.46782 8.40499 7.48329 8.30105 7.51367 8.20117C7.52373 8.16809 7.53554 8.13557 7.54883 8.10352C7.6023 7.9746 7.68055 7.8574 7.7793 7.75879C7.95382 7.58427 8.17295 7.48305 8.39941 7.45508C8.44449 7.44951 8.48979 7.44705 8.53516 7.44727C8.58082 7.44748 8.62651 7.44999 8.67188 7.45605L8.80664 7.4834L10.4111 5.87793C10.4397 5.84966 10.4784 5.83399 10.5186 5.83398C10.5386 5.83398 10.558 5.83826 10.5762 5.8457ZM13.1807 7.93945H14.6992C14.7203 7.93945 14.7405 7.94335 14.7588 7.95117C14.7947 7.96653 14.8235 7.99538 14.8389 8.03125C14.8467 8.04953 14.8516 8.06976 14.8516 8.09082V8.92578C14.8516 8.98811 14.8129 9.04226 14.7588 9.06543C14.7405 9.07325 14.7203 9.07715 14.6992 9.07715H13.1807C13.1596 9.07715 13.1394 9.07325 13.1211 9.06543C13.0852 9.05007 13.0564 9.02123 13.041 8.98535L13.0283 8.92578V8.09082C13.0283 8.06969 13.0332 8.04959 13.041 8.03125C13.0564 7.99538 13.0852 7.96653 13.1211 7.95117C13.1394 7.94335 13.1596 7.93945 13.1807 7.93945ZM2.24121 7.93945H3.76074C3.82286 7.93961 3.87626 7.97732 3.89941 8.03125C3.90727 8.04955 3.91211 8.06973 3.91211 8.09082V8.92578C3.91211 8.94687 3.90727 8.96705 3.89941 8.98535C3.87626 9.03928 3.82286 9.07699 3.76074 9.07715H2.24121C2.22042 9.07715 2.20071 9.07307 2.18262 9.06543C2.14641 9.05013 2.11703 9.02148 2.10156 8.98535C2.09375 8.96709 2.08984 8.94682 2.08984 8.92578V8.09082C2.08984 8.06978 2.09375 8.04951 2.10156 8.03125C2.11703 7.99512 2.14641 7.96647 2.18262 7.95117C2.20071 7.94353 2.22042 7.93945 2.24121 7.93945ZM4.51074 3.72266C4.52882 3.73014 4.54539 3.74086 4.55957 3.75488L5.63477 4.83008C5.69341 4.88894 5.69349 4.98513 5.63477 5.04395L5.04395 5.63477C4.98513 5.69349 4.88894 5.69341 4.83008 5.63477L3.75488 4.55957C3.72674 4.53111 3.71094 4.49218 3.71094 4.45215C3.711 4.43217 3.71516 4.41265 3.72266 4.39453L3.75488 4.3457L4.3457 3.75488C4.37414 3.72677 4.41217 3.71106 4.45215 3.71094C4.4723 3.71094 4.49247 3.71509 4.51074 3.72266ZM12.6299 3.72266C12.6479 3.73015 12.6646 3.74087 12.6787 3.75488L13.2695 4.3457C13.328 4.40436 13.328 4.50093 13.2695 4.55957L12.1943 5.63477C12.1355 5.69349 12.0393 5.69341 11.9805 5.63477L11.3896 5.04395C11.3614 5.01539 11.3457 4.97671 11.3457 4.93652C11.3458 4.91647 11.3499 4.89709 11.3574 4.87891L11.3896 4.83008L12.4648 3.75488C12.4932 3.72687 12.5314 3.71101 12.5713 3.71094C12.5915 3.71094 12.6116 3.71505 12.6299 3.72266ZM8.09082 2.12793H8.92578C8.94683 2.12793 8.96708 2.13182 8.98535 2.13965C9.02121 2.15501 9.05005 2.18387 9.06543 2.21973C9.07327 2.23801 9.07715 2.25822 9.07715 2.2793V3.79883C9.07708 3.81966 9.07317 3.83932 9.06543 3.85742C9.05008 3.89333 9.02124 3.9221 8.98535 3.9375C8.96706 3.94535 8.94686 3.9502 8.92578 3.9502H8.09082C8.06974 3.9502 8.04954 3.94535 8.03125 3.9375C7.99536 3.9221 7.96652 3.89333 7.95117 3.85742C7.94344 3.83932 7.93952 3.81966 7.93945 3.79883V2.2793C7.93945 2.25822 7.94333 2.23801 7.95117 2.21973C7.96655 2.18387 7.99539 2.15501 8.03125 2.13965C8.04952 2.13182 8.06977 2.12793 8.09082 2.12793Z" fill="white" stroke="white" stroke-width="0.000926426"/>
</svg>
