<svg width="17" height="19" viewBox="0 0 17 19" fill="none" xmlns="http://www.w3.org/2000/svg">
<path d="M12.2379 12.6463C11.7705 12.4242 11.3705 12.0833 11.077 11.6625C10.8189 11.2925 10.6432 10.8609 10.5764 10.3939C10.5567 10.2559 10.5465 10.1147 10.5465 9.97117C10.5465 8.33643 11.8717 7.01121 13.5065 7.01121C15.1412 7.01121 16.4664 8.33643 16.4664 9.97117C16.4664 11.312 15.5748 12.4447 14.3522 12.8086V12.9311L15.3217 13.9006C15.4868 14.0658 15.4868 14.3336 15.3217 14.4987L14.3522 15.4682L15.3341 16.4502C15.4944 16.6105 15.4998 16.8684 15.3465 17.0352L13.8049 18.7133C13.6422 18.8905 13.3646 18.8963 13.1945 18.7262L12.3617 17.8935C12.2825 17.8141 12.2379 17.7067 12.2379 17.5945V12.6463ZM14.3522 9.54832C14.3522 9.08124 13.9735 8.70262 13.5065 8.70262C13.0394 8.70262 12.6608 9.08124 12.6608 9.54832C12.6608 10.0154 13.0394 10.394 13.5065 10.394C13.9735 10.394 14.3522 10.0154 14.3522 9.54832ZM7.16402 17.1606C8.82862 17.1606 10.2421 16.8609 11.3922 16.2566V14.7684C10.3575 15.5144 8.95581 15.892 7.16402 15.892C4.8482 15.892 3.18565 15.2613 2.12572 14.0201C1.83154 13.6755 1.66992 13.2374 1.66992 12.7844V12.2958C1.66992 11.9461 1.95347 11.6625 2.30324 11.6625H10.0964C9.90283 11.273 9.77395 10.8455 9.72405 10.3939H2.30324C1.25286 10.3939 0.401367 11.2455 0.401367 12.2958V12.7844C0.401367 13.5394 0.670732 14.2697 1.16105 14.8439C2.48567 16.3951 4.50353 17.1606 7.16402 17.1606ZM7.16402 0.249512C9.49935 0.249512 11.3925 2.14268 11.3925 4.47803C11.3925 6.81337 9.49935 8.70651 7.16402 8.70651C4.82865 8.70651 2.93547 6.81337 2.93547 4.47803C2.93547 2.14268 4.82865 0.249512 7.16402 0.249512ZM7.16402 1.51807C5.52928 1.51807 4.20403 2.84328 4.20403 4.47803C4.20403 6.11277 5.52928 7.43795 7.16402 7.43795C8.79877 7.43795 10.124 6.11277 10.124 4.47803C10.124 2.84328 8.79877 1.51807 7.16402 1.51807Z" fill="white"/>
</svg>
