<svg width="20" height="20" viewBox="0 0 20 20" fill="none" xmlns="http://www.w3.org/2000/svg">
<path d="M5.75131 4.92977C5.75131 4.47601 6.11917 4.10815 6.57293 4.10815H13.1458C13.5996 4.10815 13.9675 4.47601 13.9675 4.92977V6.573C13.9675 7.02676 13.5996 7.39461 13.1458 7.39461H6.57293C6.11917 7.39461 5.75131 7.02676 5.75131 6.573V4.92977ZM6.98373 6.16219H12.735V5.34058H6.98373V6.16219ZM3.28647 3.69735C3.28647 2.56294 4.20609 1.64331 5.3405 1.64331H14.7891C15.9235 1.64331 16.8431 2.56294 16.8431 3.69735V15.4054C16.8431 15.7457 16.5672 16.0216 16.2269 16.0216H4.51889C4.51889 16.4753 4.88674 16.8432 5.3405 16.8432H16.2269C16.5672 16.8432 16.8431 17.1191 16.8431 17.4594C16.8431 17.7997 16.5672 18.0756 16.2269 18.0756H5.3405C4.20609 18.0756 3.28647 17.156 3.28647 16.0216V3.69735ZM4.51889 14.7891H15.6107V3.69735C15.6107 3.24359 15.2429 2.87573 14.7891 2.87573H5.3405C4.88674 2.87573 4.51889 3.24359 4.51889 3.69735V14.7891Z" fill="white"/>
</svg>
