<svg width="13" height="13" viewBox="0 0 13 13" fill="none" xmlns="http://www.w3.org/2000/svg">
<g clip-path="url(#clip0_2072_2895)">
<path d="M6.52642 1.34098C6.33197 1.14647 6.06823 1.03717 5.7932 1.03711H2.0742C1.79915 1.03711 1.53536 1.14637 1.34087 1.34087C1.14637 1.53536 1.03711 1.79915 1.03711 2.0742V5.7932C1.03717 6.06823 1.14647 6.33197 1.34098 6.52642L5.85439 11.0398C6.09007 11.274 6.40884 11.4055 6.7411 11.4055C7.07336 11.4055 7.39212 11.274 7.62781 11.0398L11.0398 7.62781C11.274 7.39212 11.4055 7.07336 11.4055 6.7411C11.4055 6.40884 11.274 6.09007 11.0398 5.85439L6.52642 1.34098Z" stroke="#FC8C15" stroke-width="1.03709" stroke-linecap="round" stroke-linejoin="round"/>
<path d="M3.8894 4.14843C4.03259 4.14843 4.14867 4.03235 4.14867 3.88916C4.14867 3.74596 4.03259 3.62988 3.8894 3.62988C3.74621 3.62988 3.63013 3.74596 3.63013 3.88916C3.63013 4.03235 3.74621 4.14843 3.8894 4.14843Z" fill="#FC8C15" stroke="#FC8C15" stroke-width="1.03709" stroke-linecap="round" stroke-linejoin="round"/>
</g>
<defs>
<clipPath id="clip0_2072_2895">
<rect width="12.4451" height="12.4451" fill="white"/>
</clipPath>
</defs>
</svg>
