<svg width="22" height="22" viewBox="0 0 22 22" fill="none" xmlns="http://www.w3.org/2000/svg">
<path d="M7.79331 10.5417C8.30066 10.5417 8.71195 10.953 8.71195 11.4604C8.71195 11.9678 8.30066 12.379 7.79331 12.379C7.28596 12.379 6.87467 11.9678 6.87467 11.4604C6.87467 10.953 7.28596 10.5417 7.79331 10.5417ZM10.9997 3.99138V9.62503L11.0001 10.0879L17.8215 10.087L16.2426 8.50694C15.9986 8.26283 15.9764 7.88088 16.1762 7.61176L16.2428 7.53467C16.4869 7.29064 16.8688 7.26851 17.1379 7.46826L17.215 7.53484L19.9619 10.2826C20.2058 10.5266 20.2281 10.9081 20.0288 11.1772L19.9624 11.2543L17.2155 14.0074C16.9474 14.2763 16.5121 14.2767 16.2433 14.0086C15.9989 13.7648 15.9763 13.3829 16.1756 13.1135L16.2422 13.0363L17.8123 11.462L11.0001 11.4629L10.9997 17.6459C10.9997 18.0734 10.6136 18.3973 10.1926 18.3229L2.40093 16.9467C2.07245 16.8887 1.83301 16.6032 1.83301 16.2697V5.27089C1.83301 4.93419 2.07685 4.64703 2.40911 4.59247L10.2008 3.31296C10.6193 3.24423 10.9997 3.56721 10.9997 3.99138ZM9.62467 4.80098L3.20801 5.8547V15.693L9.62467 16.8264V4.80098ZM11.9163 16.9596L12.6178 16.9597L12.7111 16.9534C13.047 16.9078 13.3058 16.6196 13.3053 16.271L13.2987 12.375H11.9163V16.9596ZM11.9182 9.16672L11.9163 7.99828V4.58338L12.5995 4.58339C12.9471 4.58339 13.2346 4.84145 13.2806 5.17657L13.287 5.26975L13.2932 9.16672H11.9182Z" fill="#324969"/>
</svg>
