<svg width="21" height="21" viewBox="0 0 21 21" fill="none" xmlns="http://www.w3.org/2000/svg">
<g id="Icon / Notification">
<g id="notification">
<path id="Vector" d="M10.1434 17.7552C8.20338 17.7552 6.26333 17.4471 4.4232 16.831C3.72378 16.5895 3.19089 16.0983 2.95775 15.4571C2.71629 14.816 2.79955 14.1082 3.18257 13.4754L4.1401 11.8851C4.33993 11.552 4.52311 10.8859 4.52311 10.4946V8.08827C4.52311 4.99085 7.04601 2.46796 10.1434 2.46796C13.2408 2.46796 15.7637 4.99085 15.7637 8.08827V10.4946C15.7637 10.8776 15.9469 11.552 16.1468 11.8934L17.096 13.4754C17.454 14.0749 17.5206 14.7993 17.2791 15.4571C17.0377 16.1149 16.5131 16.6145 15.8553 16.831C14.0235 17.4471 12.0835 17.7552 10.1434 17.7552ZM10.1434 3.71691C7.7371 3.71691 5.77207 5.67362 5.77207 8.08827V10.4946C5.77207 11.1024 5.52228 12.0017 5.2142 12.5262L4.25667 14.1166C4.07349 14.4247 4.02353 14.7494 4.13177 15.0242C4.23169 15.3072 4.48148 15.5237 4.82286 15.6403C8.30329 16.806 11.9919 16.806 15.4723 15.6403C15.7721 15.5404 16.0052 15.3156 16.1134 15.0158C16.2217 14.7161 16.1967 14.3913 16.0302 14.1166L15.0726 12.5262C14.7562 11.985 14.5148 11.0941 14.5148 10.4863V8.08827C14.5148 5.67362 12.5581 3.71691 10.1434 3.71691Z" fill="#9E9E9E"/>
<path id="Vector_2" d="M11.6924 3.94173C11.6341 3.94173 11.5758 3.9334 11.5175 3.91675C11.276 3.85014 11.0429 3.80018 10.8181 3.76688C10.1103 3.67529 9.42757 3.72524 8.78644 3.91675C8.5533 3.99169 8.30351 3.91675 8.14531 3.7419C7.98711 3.56704 7.93715 3.31725 8.02874 3.09244C8.37012 2.21817 9.20276 1.64365 10.152 1.64365C11.1012 1.64365 11.9338 2.20984 12.2752 3.09244C12.3585 3.31725 12.3168 3.56704 12.1586 3.7419C12.0337 3.87512 11.8589 3.94173 11.6924 3.94173Z" fill="#9E9E9E"/>
<path id="Vector_3" d="M10.1436 19.6536C9.31926 19.6536 8.51993 19.3206 7.93708 18.7377C7.35423 18.1549 7.02118 17.3555 7.02118 16.5312H8.27014C8.27014 17.0225 8.46997 17.5054 8.81968 17.8551C9.16939 18.2048 9.65232 18.4047 10.1436 18.4047C11.176 18.4047 12.017 17.5637 12.017 16.5312H13.266C13.266 18.2548 11.8671 19.6536 10.1436 19.6536Z" fill="#9E9E9E"/>
</g>
<circle id="Ellipse 2" cx="14.2901" cy="4.82433" r="2.0816" fill="#1FCB4F" stroke="black" stroke-width="0.832639"/>
</g>
</svg>
