<svg width="26" height="26" viewBox="0 0 26 26" fill="none" xmlns="http://www.w3.org/2000/svg">
<path d="M14.8032 17.9111C15.0378 18.0188 15.3021 18.0434 15.5526 17.9809C15.803 17.9183 16.0247 17.7723 16.1811 17.5669L16.5843 17.0387C16.7959 16.7565 17.0703 16.5275 17.3858 16.3698C17.7012 16.2121 18.0491 16.13 18.4018 16.13H21.8095C22.412 16.13 22.9899 16.3693 23.4159 16.7954C23.842 17.2214 24.0813 17.7993 24.0813 18.4018V21.8095C24.0813 22.4121 23.842 22.9899 23.4159 23.4159C22.9899 23.842 22.412 24.0814 21.8095 24.0814C16.3868 24.0814 11.1862 21.9272 7.35171 18.0927C3.51727 14.2583 1.36309 9.05765 1.36309 3.63492C1.36309 3.0324 1.60245 2.45455 2.0285 2.0285C2.45455 1.60245 3.03239 1.3631 3.63492 1.3631H7.04266C7.64518 1.3631 8.22303 1.60245 8.64908 2.0285C9.07513 2.45455 9.31448 3.0324 9.31448 3.63492V7.04266C9.31448 7.39535 9.23237 7.7432 9.07464 8.05865C8.91691 8.37411 8.6879 8.64851 8.40575 8.86012L7.87415 9.25883C7.66561 9.41806 7.51863 9.64457 7.45816 9.89988C7.3977 10.1552 7.42749 10.4236 7.54246 10.6594C9.09489 13.8125 11.6481 16.3626 14.8032 17.9111Z" stroke="white" stroke-width="2.72619" stroke-linecap="round" stroke-linejoin="round"/>
</svg>
