<svg width="23" height="23" viewBox="0 0 23 23" fill="none" xmlns="http://www.w3.org/2000/svg">
<path d="M8.08594 4.04297H14.9141V7.45703H8.08594V4.04297ZM19.1367 8.98438H3.86328C3.71504 8.98438 3.59375 9.10566 3.59375 9.25391V15.8125H6.55859V11.2305H16.4414V15.8125H19.4062V9.25391C19.4062 9.10566 19.285 8.98438 19.1367 8.98438ZM18.5977 10.8711C18.5977 10.9699 18.5168 11.0508 18.418 11.0508H17.5195C17.4207 11.0508 17.3398 10.9699 17.3398 10.8711V9.97266C17.3398 9.87383 17.4207 9.79297 17.5195 9.79297H18.418C18.5168 9.79297 18.5977 9.87383 18.5977 9.97266V10.8711Z" fill="#E6F7FF"/>
<path d="M19.1367 7.45703H16.4414V2.69531C16.4414 2.59648 16.3605 2.51562 16.2617 2.51562H6.73828C6.63945 2.51562 6.55859 2.59648 6.55859 2.69531V7.45703H3.86328C2.87051 7.45703 2.06641 8.26113 2.06641 9.25391V16.6211C2.06641 17.0187 2.3876 17.3398 2.78516 17.3398H6.55859V20.3047C6.55859 20.4035 6.63945 20.4844 6.73828 20.4844H16.2617C16.3605 20.4844 16.4414 20.4035 16.4414 20.3047V17.3398H20.2148C20.6124 17.3398 20.9336 17.0187 20.9336 16.6211V9.25391C20.9336 8.26113 20.1295 7.45703 19.1367 7.45703ZM8.08594 4.04297H14.9141V7.45703H8.08594V4.04297ZM14.9141 18.957H8.08594V12.7578H14.9141V18.957ZM19.4062 15.8125H16.4414V11.2305H6.55859V15.8125H3.59375V9.25391C3.59375 9.10566 3.71504 8.98438 3.86328 8.98438H19.1367C19.285 8.98438 19.4062 9.10566 19.4062 9.25391V15.8125Z" fill="#F6822B"/>
<path d="M18.418 9.79297H17.5195C17.4207 9.79297 17.3398 9.87383 17.3398 9.97266V10.8711C17.3398 10.9699 17.4207 11.0508 17.5195 11.0508H18.418C18.5168 11.0508 18.5977 10.9699 18.5977 10.8711V9.97266C18.5977 9.87383 18.5168 9.79297 18.418 9.79297Z" fill="#F6822B"/>
</svg>
