<svg width="30" height="30" viewBox="0 0 30 30" fill="none" xmlns="http://www.w3.org/2000/svg">
<path d="M14.5397 27.2614C7.52428 27.2614 1.81746 21.5546 1.81746 14.5392C1.81746 7.52378 7.52428 1.81696 14.5397 1.81696C21.5551 1.81696 27.2619 7.52378 27.2619 14.5392C27.2619 21.5546 21.5551 27.2614 14.5397 27.2614ZM14.5397 3.63442C8.52388 3.63442 3.63492 8.52338 3.63492 14.5392C3.63492 20.555 8.52388 25.4439 14.5397 25.4439C20.5555 25.4439 25.4444 20.555 25.4444 14.5392C25.4444 8.52338 20.5555 3.63442 14.5397 3.63442Z" fill="white"/>
<path d="M14.5397 8.1781C12.5223 8.1781 10.9048 9.79564 10.9048 11.813H12.7222C12.7222 10.8134 13.5401 9.99556 14.5397 9.99556C15.5393 9.99556 16.3571 10.8134 16.3571 11.813C16.3571 13.6305 13.631 13.4124 13.631 16.3567H15.4484C15.4484 14.3211 18.1746 14.0848 18.1746 11.813C18.1746 9.79564 16.5571 8.1781 14.5397 8.1781Z" fill="white"/>
<path d="M14.5395 21.1182C15.1618 21.1182 15.6663 20.6137 15.6663 19.9914C15.6663 19.3691 15.1618 18.8646 14.5395 18.8646C13.9172 18.8646 13.4127 19.3691 13.4127 19.9914C13.4127 20.6137 13.9172 21.1182 14.5395 21.1182Z" fill="white"/>
<path d="M11.8135 12.7217C12.3154 12.7217 12.7222 12.3148 12.7222 11.813C12.7222 11.3111 12.3154 10.9042 11.8135 10.9042C11.3116 10.9042 10.9048 11.3111 10.9048 11.813C10.9048 12.3148 11.3116 12.7217 11.8135 12.7217Z" fill="white"/>
<path d="M14.5397 17.2654C15.0416 17.2654 15.4484 16.8585 15.4484 16.3567C15.4484 15.8548 15.0416 15.4479 14.5397 15.4479C14.0378 15.4479 13.631 15.8548 13.631 16.3567C13.631 16.8585 14.0378 17.2654 14.5397 17.2654Z" fill="white"/>
</svg>
