<svg width="32" height="28" viewBox="0 0 32 28" fill="none" xmlns="http://www.w3.org/2000/svg">
<path d="M18.4424 0.125286C16.587 0.0723002 14.7399 0.391998 13.0102 1.06546C11.2806 1.73893 9.70358 2.75248 8.37255 4.04614C7.04151 5.33981 5.98347 6.88731 5.26103 8.59708C4.53859 10.3068 4.16643 12.1442 4.16657 14.0003H1.40699C0.713238 14.0003 0.374071 14.8328 0.867405 15.3107L5.16865 19.612C5.47699 19.9203 5.95491 19.9203 6.26324 19.612L10.5799 15.3107C11.0424 14.8328 10.7032 14.0003 10.0095 14.0003H7.24991C7.24991 8.0032 12.1832 3.11612 18.1957 3.20862C23.9153 3.2857 28.7407 8.11112 28.8332 13.8461C28.9257 19.874 24.0541 24.792 18.0416 24.792C15.5903 24.792 13.3395 23.9749 11.5203 22.5874C10.9037 22.1249 10.0403 22.1711 9.50074 22.7261C8.83782 23.389 8.89949 24.4836 9.63949 25.0386C12.0529 26.8808 15.0054 27.8776 18.0416 27.8753C25.8424 27.8753 32.1324 21.4465 31.9166 13.6149C31.7162 6.36904 25.6728 0.325702 18.4424 0.125286ZM21.1249 12.4586V10.917C21.1249 9.22112 19.7374 7.83362 18.0416 7.83362C16.3457 7.83362 14.9582 9.22112 14.9582 10.917V12.4586C14.1103 12.4586 13.4166 13.1524 13.4166 14.0003V18.6253C13.4166 19.4732 14.1103 20.167 14.9582 20.167H21.1249C21.9728 20.167 22.6666 19.4732 22.6666 18.6253V14.0003C22.6666 13.1524 21.9728 12.4586 21.1249 12.4586ZM19.5832 12.4586H16.4999V10.917C16.4999 10.069 17.1937 9.37529 18.0416 9.37529C18.8895 9.37529 19.5832 10.069 19.5832 10.917V12.4586Z" fill="#FF9240"/>
</svg>
