<svg width="13" height="13" viewBox="0 0 13 13" fill="none" xmlns="http://www.w3.org/2000/svg">
<path d="M1.55542 3.62955V2.59261C1.55542 2.31759 1.66467 2.05384 1.85913 1.85938C2.0536 1.66491 2.31735 1.55566 2.59236 1.55566H3.62931" stroke="#00A63E" stroke-width="1.03694" stroke-linecap="round" stroke-linejoin="round"/>
<path d="M8.81372 1.55566H9.85067C10.1257 1.55566 10.3894 1.66491 10.5839 1.85938C10.7784 2.05384 10.8876 2.31759 10.8876 2.59261V3.62955" stroke="#00A63E" stroke-width="1.03694" stroke-linecap="round" stroke-linejoin="round"/>
<path d="M10.8876 8.81445V9.8514C10.8876 10.1264 10.7784 10.3902 10.5839 10.5846C10.3894 10.7791 10.1257 10.8883 9.85067 10.8883H8.81372" stroke="#00A63E" stroke-width="1.03694" stroke-linecap="round" stroke-linejoin="round"/>
<path d="M3.62931 10.8883H2.59236C2.31735 10.8883 2.0536 10.7791 1.85913 10.5846C1.66467 10.3902 1.55542 10.1264 1.55542 9.8514V8.81445" stroke="#00A63E" stroke-width="1.03694" stroke-linecap="round" stroke-linejoin="round"/>
<path d="M3.62915 6.22266H8.81387" stroke="#00A63E" stroke-width="1.03694" stroke-linecap="round" stroke-linejoin="round"/>
</svg>
