<svg width="42" height="42" viewBox="0 0 42 42" fill="none" xmlns="http://www.w3.org/2000/svg">
<path fill-rule="evenodd" clip-rule="evenodd" d="M42 21C42 26.5695 39.7875 31.911 35.8492 35.8492C31.911 39.7875 26.5695 42 21 42C15.4305 42 10.089 39.7875 6.15076 35.8492C2.21249 31.911 0 26.5695 0 21C0 15.4305 2.21249 10.089 6.15076 6.15076C10.089 2.21249 15.4305 0 21 0C26.5695 0 31.911 2.21249 35.8492 6.15076C39.7875 10.089 42 15.4305 42 21ZM17.5 10.5C17.5 9.57174 17.8687 8.6815 18.5251 8.02513C19.1815 7.36875 20.0717 7 21 7C21.9283 7 22.8185 7.36875 23.4749 8.02513C24.1313 8.6815 24.5 9.57174 24.5 10.5V21C24.5 21.9283 24.1313 22.8185 23.4749 23.4749C22.8185 24.1313 21.9283 24.5 21 24.5C20.0717 24.5 19.1815 24.1313 18.5251 23.4749C17.8687 22.8185 17.5 21.9283 17.5 21V10.5ZM21 28C20.0717 28 19.1815 28.3687 18.5251 29.0251C17.8687 29.6815 17.5 30.5717 17.5 31.5C17.5 32.4283 17.8687 33.3185 18.5251 33.9749C19.1815 34.6312 20.0717 35 21 35C21.9283 35 22.8185 34.6312 23.4749 33.9749C24.1313 33.3185 24.5 32.4283 24.5 31.5C24.5 30.5717 24.1313 29.6815 23.4749 29.0251C22.8185 28.3687 21.9283 28 21 28Z" fill="#FF7A00"/>
</svg>
