<svg width="153" height="94" viewBox="0 0 153 94" fill="none" xmlns="http://www.w3.org/2000/svg">
<g clip-path="url(#clip0_2_36)">
<path d="M152.911 41.3806C152.939 42.6813 152.686 43.9283 152.317 45.1523C151.828 46.7808 151.124 48.3222 150.31 49.8099C148.868 52.4396 147.124 54.8644 145.242 57.192C143.97 58.7667 142.633 60.2826 141.255 61.7651C139.468 63.6906 137.612 65.5445 135.702 67.3471C132.76 70.1253 129.707 72.7806 126.571 75.3386C121.424 79.5328 116.093 83.476 110.521 87.0864C108.242 88.5638 105.922 89.9721 103.513 91.2294C102.335 91.8439 101.139 92.4277 99.8744 92.8528C99.4417 92.9987 99.0089 93.137 98.5506 93.1779C98.4789 93.1831 98.4072 93.2112 98.3355 93.2087C97.5545 93.1779 97.4035 92.84 97.5673 92.2382C97.657 91.9105 97.8234 91.5955 97.9975 91.2985C98.5839 90.305 99.3239 89.4267 100.077 88.5587C101.559 86.8534 103.062 85.1634 104.522 83.4402C106.324 81.3124 108.071 79.1384 109.773 76.9313C111.935 74.1326 114.016 71.2776 115.996 68.3457C117.862 65.5803 119.619 62.7484 121.227 59.8242C122.766 57.0281 124.148 54.1577 125.249 51.1593C125.877 49.4489 126.42 47.7128 126.778 45.923C126.965 44.9961 127.119 44.064 127.203 43.1192C127.267 42.4278 127.29 41.739 127.285 41.0451C127.275 39.3424 127.001 37.6755 126.578 36.029C125.995 33.7604 125.101 31.6121 124.028 29.5329C122.955 27.4563 121.711 25.4872 120.349 23.5899C118.636 21.2034 116.779 18.9348 114.774 16.7865C113.704 15.6419 112.636 14.4922 111.522 13.3912C109.604 11.4938 107.62 9.66815 105.572 7.90905C103.815 6.40089 102.015 4.9465 100.192 3.52027C99.4596 2.94671 98.7349 2.3629 98.1025 1.67923C97.8695 1.42574 97.6416 1.15688 97.4598 0.867539C97.1653 0.398959 97.3062 0.12498 97.849 0.019997C98.2561 -0.05938 98.6505 0.0507236 99.0397 0.119859C100.315 0.352869 101.536 0.780481 102.75 1.22602C104.99 2.04795 107.187 2.98255 109.338 4.0119C111.392 4.99515 113.44 5.9912 115.463 7.03591C119.542 9.14836 123.519 11.4401 127.405 13.8905C130.847 16.0593 134.199 18.351 137.425 20.8296C139.117 22.1304 140.769 23.4746 142.359 24.8983C143.447 25.8713 144.518 26.8597 145.532 27.907C147.283 29.7173 148.927 31.6172 150.292 33.7424C151.062 34.9433 151.726 36.1955 152.212 37.5397C152.66 38.7816 152.949 40.0542 152.906 41.3755L152.911 41.3806Z" fill="white"/>
<path d="M81.1028 47.0047C80.9415 47.02 80.8416 46.8946 80.7162 46.8306C77.0418 45.0151 73.329 43.2919 69.4318 42.0065C66.7663 41.1257 64.0521 40.4369 61.2816 39.9708C59.5378 39.6764 57.7864 39.4613 56.0222 39.3153C54.0224 39.1489 52.0175 39.09 50.0126 39.1156C48.4251 39.1361 46.8478 39.2949 45.2756 39.5176C40.915 40.1322 36.6875 41.2921 32.5164 42.6722C28.0892 44.1343 23.7593 45.8524 19.4832 47.7012C15.8241 49.2836 12.1881 50.9121 8.53936 52.515C6.85708 53.255 5.16711 53.9796 3.43106 54.5839C2.7602 54.8169 2.08421 55.0346 1.38006 55.1472C1.12913 55.1882 0.870511 55.2036 0.619577 55.1831C0.138194 55.1447 -0.0692109 54.8835 0.0306505 54.4072C0.0921037 54.1102 0.204768 53.8106 0.348159 53.5418C0.719439 52.853 1.10864 52.1744 1.51577 51.5036C3.4285 48.3515 5.60753 45.3864 7.9658 42.5544C11.2177 38.6522 14.7794 35.0546 18.6868 31.8078C22.3715 28.748 26.2993 26.0543 30.5652 23.865C33.9784 22.111 37.5325 20.7283 41.2658 19.8219C43.0914 19.3789 44.9376 19.0588 46.8068 18.8694C48.4609 18.7029 50.115 18.6338 51.7768 18.6876C51.7768 19.0102 51.8997 19.2944 52.0585 19.5607C52.3478 20.0446 52.6372 20.5312 52.9572 20.9946C54.0557 22.5873 55.2797 24.0801 56.542 25.5447C59.7094 29.2242 63.1175 32.6682 66.7253 35.9149C70.0489 38.9057 73.5236 41.7043 77.221 44.2214C78.3963 45.0203 79.5998 45.7731 80.7904 46.5463C80.8339 46.636 80.9031 46.6821 81.0055 46.6718C81.049 46.7025 81.0926 46.7307 81.1361 46.7589L81.1335 46.7563C81.131 46.8331 81.1258 46.9125 81.1233 46.9893L81.1079 47.0047H81.1028Z" fill="white"/>
<path d="M80.7879 46.5459C79.5973 45.7727 78.3913 45.0199 77.2185 44.221C73.5211 41.7039 70.0464 38.9053 66.7228 35.9145C63.115 32.6678 59.7069 29.2238 56.5395 25.5443C55.2797 24.0797 54.0532 22.5869 52.9547 20.9942C52.6347 20.5307 52.3428 20.0442 52.056 19.5603C51.8972 19.294 51.7718 19.0072 51.7743 18.6872C52.1917 18.6743 52.6116 18.6308 53.0213 18.7588C53.0879 18.7793 53.1647 18.7742 53.239 18.7768C53.8765 18.7819 54.5013 18.9022 55.1312 18.9765C55.7073 19.0431 56.2835 19.1096 56.8545 19.2172C57.6021 19.3555 58.3524 19.4835 59.1001 19.6371C59.881 19.7984 60.662 19.9674 61.4378 20.1595C63.3608 20.6409 65.2556 21.2221 67.1325 21.8571C69.0452 22.5049 70.9324 23.2219 72.8016 23.9875C74.215 24.5662 75.6131 25.1884 77.0111 25.8029C78.1429 26.3022 79.267 26.8195 80.3962 27.3264C81.6739 27.9 82.9593 28.4582 84.2319 29.042C85.9679 29.8383 87.7245 30.5886 89.5066 31.2774C90.7792 31.769 92.0646 32.2299 93.3833 32.5807C94.0157 32.7497 94.6431 32.9417 95.2832 33.057C95.9771 33.1824 96.6685 33.3463 97.3854 33.3361C97.6722 33.3309 97.9615 33.418 98.2509 33.4231C99.2188 33.4385 100.171 33.3105 101.103 33.0544C101.372 32.9801 101.544 33.0365 101.741 33.2132C102.24 33.6638 102.757 34.094 103.267 34.5318C103.295 34.5549 103.321 34.5805 103.346 34.6061C104.358 35.6047 105.446 36.5214 106.411 37.5661C106.967 38.1678 107.492 38.7952 108.048 39.3943C108.606 39.9935 109.105 40.6439 109.602 41.2917C110.503 42.4619 111.307 43.696 111.922 45.0455C112.224 45.7086 112.465 46.3974 112.598 47.1118C112.662 47.4652 112.616 47.839 112.639 48.2026C112.703 49.2524 112.27 50.1128 111.617 50.8835C111.489 51.032 111.312 51.1421 111.156 51.265C110.667 51.6466 110.155 51.9794 109.566 52.2048C108.596 52.5735 107.615 52.891 106.578 53.0267C106.04 53.0984 105.5 53.1752 104.962 53.2495C104.327 53.3365 103.684 53.2802 103.06 53.3647C102.386 53.4569 101.715 53.4338 101.044 53.4389C100.794 53.4389 100.54 53.3929 100.287 53.3672C100.215 53.3596 100.141 53.3416 100.069 53.3493C99.4287 53.3954 98.7988 53.2674 98.1664 53.2187C97.644 53.1778 97.1217 53.083 96.6096 52.9755C95.6852 52.7834 94.7634 52.5863 93.8493 52.3558C92.6484 52.0537 91.4757 51.6645 90.3209 51.2189C89.5066 50.904 88.6924 50.5891 87.8858 50.2562C87.2124 49.9796 86.5492 49.6775 85.886 49.3805C85.7554 49.3216 85.6376 49.232 85.5147 49.1551C84.9539 48.8428 84.3932 48.5252 83.8273 48.218C83.4023 47.9875 82.9695 47.7699 82.5419 47.5471C82.2526 47.3756 81.9607 47.2066 81.6713 47.035C81.5766 46.9787 81.4818 46.9351 81.3717 46.9812C81.341 46.8532 81.277 46.7636 81.131 46.7661L81.1336 46.7687C81.0901 46.7405 81.0465 46.7098 81.003 46.6817C80.9313 46.6407 80.8596 46.5972 80.7879 46.5562V46.5459Z" fill="#CFCFCF"/>
<path d="M41.7113 72.2128C41.7369 70.3923 41.8598 68.7023 42.0288 67.0175C42.1927 65.3685 42.3438 63.7169 42.5256 62.0705C42.6997 60.5111 42.7816 58.9492 42.7022 57.3795C42.6689 56.7599 42.6203 56.1428 42.5768 55.5257C42.5281 54.8164 42.4692 54.1097 42.4282 53.4005C42.3796 52.5606 42.4283 51.7259 42.587 50.8988C42.8584 49.5033 43.6291 48.4791 44.8838 47.8133C45.6469 47.4088 46.4637 47.163 47.3061 46.9991C48.3457 46.7968 49.3955 46.6713 50.453 46.6585C51.5643 46.6457 52.6781 46.6329 53.7869 46.6764C55.1363 46.7277 56.4754 46.8941 57.7659 47.3217C58.1449 47.4472 58.5187 47.5957 58.8772 47.7749C60.2855 48.4816 61.0742 49.6364 61.3123 51.1856C61.4711 52.22 61.4352 53.2571 61.3661 54.2941C61.2662 55.8022 61.0793 57.3079 61.1049 58.8211C61.1203 59.7122 61.1868 60.6033 61.2637 61.4918C61.3763 62.7618 61.5248 64.0267 61.6452 65.2968C61.7809 66.7281 61.9294 68.162 62.0216 69.5959C62.124 71.1963 62.1983 72.7966 62.1214 74.4021C62.0702 75.475 62.0113 76.5478 61.8603 77.613C61.6273 79.2415 61.256 80.8316 60.5493 82.327C60.3623 82.7213 60.1549 83.108 59.9245 83.4767C58.7415 85.3741 57.0644 86.6082 54.8879 87.1383C52.7754 87.6529 50.663 87.6376 48.5684 87.0333C46.6941 86.493 45.2141 85.3945 44.1157 83.7865C43.3552 82.6778 42.8533 81.4513 42.4999 80.1633C42.1363 78.8421 41.9392 77.4952 41.8188 76.1305C41.7011 74.7836 41.7087 73.4368 41.7113 72.2128Z" fill="white"/>
<path d="M82.5395 47.5384C82.9696 47.7612 83.3998 47.9788 83.8248 48.2093C84.3907 48.5165 84.9489 48.834 85.5122 49.1464C84.5648 48.7086 83.6174 48.2707 82.67 47.8303C82.5574 47.7765 82.4524 47.7048 82.3423 47.6434C82.4165 47.6255 82.5113 47.6434 82.5395 47.5384Z" fill="#6E7276"/>
<path d="M82.5391 47.5372C82.5109 47.6421 82.4187 47.6268 82.3419 47.6421C81.9706 47.4578 81.5968 47.276 81.2255 47.0916C81.2486 47.0532 81.2691 47.0148 81.2921 46.9764C81.3177 46.9764 81.3459 46.9738 81.3715 46.9687C81.4816 46.9226 81.5763 46.9662 81.6711 47.0225C81.9604 47.194 82.2497 47.3656 82.5416 47.5346L82.5391 47.5372Z" fill="#41494F"/>
<path d="M81.2977 46.9758C81.2741 47.0152 81.2531 47.0546 81.2294 47.094C81.1874 47.0651 81.1453 47.0336 81.1033 47.0047L81.119 46.9889C81.1795 46.9863 81.2373 46.981 81.2977 46.9784V46.9758Z" fill="white"/>
<path d="M81.2934 46.9779C81.2342 46.9804 81.1776 46.9856 81.1184 46.9882C81.121 46.9109 81.1261 46.8312 81.1287 46.7539C81.2754 46.7539 81.3397 46.8415 81.3706 46.9702C81.3449 46.9753 81.3192 46.9779 81.2908 46.9779H81.2934Z" fill="#653B41"/>
<path d="M80.788 46.5463C80.8597 46.5872 80.9314 46.6308 81.003 46.6717C80.9006 46.6794 80.8315 46.6359 80.788 46.5463Z" fill="#653B41"/>
</g>
<defs>
<clipPath id="clip0_2_36">
<rect width="152.914" height="93.2143" fill="white"/>
</clipPath>
</defs>
</svg>
