<svg width="169" height="44" viewBox="0 0 169 44" fill="none" xmlns="http://www.w3.org/2000/svg">
<g clip-path="url(#clip0_2328_8743)">
<path d="M39.5458 22.7019C39.5531 23.0383 39.4876 23.3608 39.3922 23.6773C39.2657 24.0985 39.0836 24.4971 38.873 24.8819C38.5002 25.562 38.0492 26.1891 37.5625 26.791C37.2334 27.1983 36.8877 27.5903 36.5315 27.9738C36.0692 28.4717 35.5891 28.9512 35.0951 29.4174C34.3342 30.1359 33.5449 30.8226 32.7337 31.4841C31.4026 32.5688 30.0239 33.5886 28.5829 34.5224C27.9936 34.9045 27.3936 35.2687 26.7705 35.5938C26.4658 35.7527 26.1566 35.9037 25.8295 36.0137C25.7175 36.0514 25.6056 36.0872 25.4871 36.0978C25.4686 36.0991 25.45 36.1064 25.4315 36.1057C25.2295 36.0978 25.1904 36.0103 25.2328 35.8547C25.256 35.77 25.299 35.6885 25.3441 35.6117C25.4957 35.3548 25.6871 35.1276 25.8818 34.9031C26.2652 34.4621 26.6539 34.025 27.0314 33.5794C27.4976 33.0291 27.9492 32.4669 28.3896 31.896C28.9485 31.1722 29.4869 30.4339 29.9987 29.6756C30.4815 28.9604 30.9358 28.228 31.3516 27.4718C31.7496 26.7487 32.1072 26.0063 32.392 25.2309C32.5542 24.7885 32.6946 24.3395 32.7873 23.8767C32.8357 23.6369 32.8754 23.3959 32.8972 23.1515C32.9138 22.9727 32.9198 22.7946 32.9184 22.6151C32.9158 22.1748 32.8449 21.7437 32.7357 21.3179C32.5847 20.7311 32.3536 20.1756 32.0761 19.6378C31.7986 19.1008 31.4768 18.5915 31.1245 18.1008C30.6815 17.4837 30.2014 16.8969 29.6829 16.3413C29.4061 16.0453 29.1299 15.748 28.8419 15.4633C28.3459 14.9726 27.8326 14.5004 27.3029 14.0455C26.8486 13.6554 26.3831 13.2793 25.9116 12.9104C25.7222 12.7621 25.5348 12.6111 25.3712 12.4343C25.3109 12.3687 25.252 12.2992 25.205 12.2244C25.1288 12.1032 25.1653 12.0323 25.3056 12.0052C25.4109 11.9847 25.5129 12.0131 25.6136 12.031C25.9434 12.0913 26.2592 12.2019 26.5731 12.3171C27.1526 12.5297 27.7207 12.7714 28.277 13.0376C28.8081 13.2919 29.3379 13.5495 29.861 13.8196C30.9159 14.366 31.9443 14.9587 32.9496 15.5924C33.8396 16.1533 34.7064 16.746 35.5408 17.387C35.9785 17.7234 36.4056 18.071 36.8169 18.4392C37.0983 18.6909 37.3751 18.9465 37.6373 19.2173C38.0903 19.6855 38.5154 20.1769 38.8684 20.7265C39.0677 21.0371 39.2392 21.3609 39.3651 21.7086C39.4809 22.0297 39.5558 22.3589 39.5445 22.7006L39.5458 22.7019Z" fill="#3D3D3D"/>
<path d="M20.9747 24.1564C20.933 24.1604 20.9072 24.1279 20.8747 24.1114C19.9245 23.6419 18.9643 23.1962 17.9564 22.8638C17.267 22.636 16.5651 22.4578 15.8486 22.3373C15.3976 22.2612 14.9446 22.2055 14.4884 22.1678C13.9712 22.1247 13.4527 22.1095 12.9342 22.1161C12.5236 22.1214 12.1157 22.1625 11.7091 22.2201C10.5813 22.379 9.48801 22.679 8.40927 23.0359C7.26431 23.4141 6.14451 23.8584 5.03862 24.3365C4.09232 24.7458 3.15198 25.1669 2.20833 25.5815C1.77325 25.7729 1.33619 25.9603 0.887214 26.1165C0.713715 26.1768 0.538891 26.2331 0.356783 26.2622C0.291886 26.2728 0.225003 26.2768 0.160106 26.2715C0.0356103 26.2616 -0.0180288 26.194 0.00779743 26.0709C0.0236905 25.994 0.0528278 25.9166 0.0899116 25.847C0.185932 25.6689 0.286588 25.4934 0.39188 25.3199C0.886552 24.5047 1.45009 23.7379 2.05999 23.0055C2.901 21.9963 3.82213 21.0659 4.83267 20.2262C5.78559 19.4348 6.80142 18.7382 7.90467 18.172C8.7874 17.7184 9.70654 17.3608 10.672 17.1264C11.1442 17.0118 11.6217 16.929 12.1051 16.88C12.5329 16.837 12.9607 16.8191 13.3904 16.833C13.3904 16.9164 13.4222 16.9899 13.4633 17.0588C13.5381 17.184 13.6129 17.3098 13.6957 17.4297C13.9798 17.8416 14.2963 18.2276 14.6228 18.6064C15.442 19.558 16.3234 20.4487 17.2564 21.2884C18.116 22.0618 19.0146 22.7856 19.9708 23.4366C20.2748 23.6432 20.586 23.8379 20.8939 24.0379C20.9052 24.061 20.9231 24.073 20.9496 24.0703C20.9608 24.0783 20.9721 24.0855 20.9833 24.0928L20.9827 24.0922C20.982 24.112 20.9807 24.1326 20.98 24.1524L20.9761 24.1564H20.9747Z" fill="#3D3D3D"/>
<path d="M20.8934 24.0378C20.5855 23.8378 20.2736 23.6431 19.9703 23.4365C19.0141 22.7855 18.1154 22.0617 17.2559 21.2883C16.3228 20.4486 15.4414 19.5579 14.6223 18.6063C14.2965 18.2275 13.9793 17.8414 13.6952 17.4296C13.6124 17.3097 13.5369 17.1839 13.4627 17.0587C13.4217 16.9898 13.3892 16.9157 13.3899 16.8329C13.4978 16.8296 13.6064 16.8183 13.7124 16.8514C13.7296 16.8567 13.7495 16.8554 13.7687 16.8561C13.9336 16.8574 14.0952 16.8885 14.2581 16.9077C14.4071 16.9249 14.5561 16.9422 14.7037 16.97C14.8971 17.0057 15.0911 17.0388 15.2845 17.0786C15.4865 17.1203 15.6884 17.164 15.8891 17.2137C16.3864 17.3382 16.8764 17.4885 17.3618 17.6527C17.8565 17.8203 18.3446 18.0057 18.828 18.2037C19.1935 18.3533 19.5551 18.5143 19.9167 18.6732C20.2094 18.8023 20.5001 18.9361 20.7921 19.0672C21.1225 19.2155 21.455 19.3599 21.7841 19.5109C22.2331 19.7168 22.6873 19.9109 23.1482 20.089C23.4774 20.2161 23.8098 20.3353 24.1508 20.4261C24.3144 20.4698 24.4766 20.5194 24.6422 20.5492C24.8217 20.5817 25.0005 20.6241 25.1859 20.6214C25.26 20.6201 25.3349 20.6426 25.4097 20.6439C25.66 20.6479 25.9064 20.6148 26.1474 20.5486C26.2169 20.5294 26.2613 20.5439 26.3123 20.5896C26.4414 20.7062 26.5752 20.8174 26.707 20.9307C26.7143 20.9366 26.7209 20.9432 26.7275 20.9499C26.9891 21.2081 27.2705 21.4452 27.5202 21.7154C27.6639 21.871 27.7996 22.0332 27.9433 22.1882C28.0877 22.3432 28.2168 22.5114 28.3453 22.6789C28.5784 22.9815 28.7863 23.3007 28.9452 23.6497C29.0234 23.8212 29.0856 23.9994 29.1201 24.1841C29.1366 24.2755 29.1247 24.3722 29.1307 24.4662C29.1472 24.7377 29.0353 24.9602 28.8664 25.1595C28.8333 25.198 28.7876 25.2264 28.7472 25.2582C28.6208 25.3569 28.4883 25.443 28.336 25.5012C28.085 25.5966 27.8314 25.6787 27.5632 25.7138C27.4241 25.7324 27.2844 25.7522 27.1454 25.7714C26.9811 25.7939 26.8149 25.7794 26.6533 25.8012C26.4792 25.8251 26.3057 25.8191 26.1322 25.8204C26.0673 25.8204 26.0017 25.8085 25.9362 25.8019C25.9176 25.7999 25.8984 25.7953 25.8799 25.7973C25.7143 25.8092 25.5514 25.7761 25.3878 25.7635C25.2528 25.7529 25.1177 25.7284 24.9852 25.7006C24.7462 25.6509 24.5078 25.5999 24.2714 25.5403C23.9608 25.4622 23.6575 25.3615 23.3588 25.2463C23.1482 25.1648 22.9377 25.0834 22.7291 24.9973C22.5549 24.9258 22.3834 24.8476 22.2119 24.7708C22.1781 24.7556 22.1476 24.7324 22.1159 24.7126C21.9708 24.6318 21.8258 24.5496 21.6795 24.4702C21.5695 24.4106 21.4576 24.3543 21.347 24.2967C21.2722 24.2523 21.1967 24.2086 21.1219 24.1642C21.0974 24.1497 21.0729 24.1384 21.0444 24.1503C21.0365 24.1172 21.0199 24.094 20.9822 24.0947L20.9828 24.0954C20.9716 24.0881 20.9603 24.0801 20.949 24.0729C20.9305 24.0623 20.912 24.051 20.8934 24.0404V24.0378Z" fill="#CFCFCF"/>
<path d="M10.7874 30.6755C10.794 30.2047 10.8258 29.7676 10.8695 29.3319C10.9119 28.9054 10.951 28.4783 10.998 28.0525C11.043 27.6492 11.0642 27.2452 11.0437 26.8393C11.0351 26.6791 11.0225 26.5195 11.0112 26.3599C10.9986 26.1764 10.9834 25.9937 10.9728 25.8102C10.9602 25.593 10.9728 25.3771 11.0139 25.1633C11.0841 24.8024 11.2834 24.5375 11.6079 24.3653C11.8052 24.2607 12.0165 24.1971 12.2343 24.1547C12.5032 24.1024 12.7747 24.0699 13.0482 24.0666C13.3356 24.0633 13.6237 24.06 13.9104 24.0713C14.2594 24.0845 14.6057 24.1276 14.9395 24.2381C15.0375 24.2706 15.1342 24.309 15.2269 24.3554C15.5911 24.5381 15.795 24.8368 15.8566 25.2374C15.8977 25.505 15.8884 25.7732 15.8705 26.0413C15.8447 26.4314 15.7964 26.8208 15.803 27.2121C15.807 27.4426 15.8242 27.673 15.844 27.9028C15.8732 28.2313 15.9116 28.5584 15.9427 28.8869C15.9778 29.257 16.0162 29.6279 16.0401 29.9987C16.0665 30.4126 16.0858 30.8265 16.0659 31.2417C16.0526 31.5192 16.0374 31.7966 15.9983 32.0721C15.9381 32.4933 15.8421 32.9045 15.6593 33.2912C15.6109 33.3932 15.5573 33.4932 15.4977 33.5886C15.1918 34.0793 14.758 34.3985 14.1951 34.5355C13.6488 34.6686 13.1025 34.6647 12.5608 34.5084C12.0761 34.3687 11.6933 34.0846 11.4092 33.6687C11.2125 33.382 11.0827 33.0648 10.9914 32.7317C10.8973 32.39 10.8463 32.0416 10.8152 31.6887C10.7848 31.3404 10.7867 30.992 10.7874 30.6755Z" fill="#3D3D3D"/>
<path d="M21.3464 24.2949C21.4577 24.3525 21.5689 24.4088 21.6788 24.4684C21.8252 24.5479 21.9695 24.63 22.1152 24.7108C21.8702 24.5976 21.6252 24.4843 21.3802 24.3704C21.351 24.3565 21.3239 24.338 21.2954 24.3221C21.3146 24.3174 21.3391 24.3221 21.3464 24.2949Z" fill="#6E7276"/>
<path d="M21.3463 24.2946C21.339 24.3217 21.3152 24.3178 21.2953 24.3217C21.1993 24.2741 21.1026 24.2271 21.0066 24.1794C21.0126 24.1694 21.0179 24.1595 21.0238 24.1496C21.0304 24.1496 21.0377 24.1489 21.0443 24.1476C21.0728 24.1357 21.0973 24.1469 21.1218 24.1615C21.1966 24.2059 21.2715 24.2502 21.347 24.2939L21.3463 24.2946Z" fill="#41494F"/>
<path d="M21.0251 24.1484C21.019 24.1586 21.0136 24.1688 21.0075 24.179C20.9966 24.1715 20.9857 24.1634 20.9749 24.1559L20.9789 24.1518C20.9946 24.1512 21.0095 24.1498 21.0251 24.1491V24.1484Z" fill="#3D3D3D"/>
<path d="M21.024 24.1495C21.0087 24.1501 20.9941 24.1515 20.9788 24.1521C20.9794 24.1322 20.9808 24.1115 20.9814 24.0916C21.0194 24.0916 21.036 24.1142 21.044 24.1475C21.0373 24.1488 21.0307 24.1495 21.0234 24.1495H21.024Z" fill="#653B41"/>
<path d="M20.8936 24.0381C20.9121 24.0487 20.9306 24.0599 20.9492 24.0705C20.9227 24.0725 20.9048 24.0613 20.8936 24.0381Z" fill="#653B41"/>
</g>
<path d="M55.3057 15.2031V28H53.1172V15.2031H55.3057ZM59.3223 15.2031V16.9609H49.1357V15.2031H59.3223ZM64.1475 28.1758C63.4443 28.1758 62.8086 28.0615 62.2402 27.833C61.6777 27.5986 61.1973 27.2734 60.7988 26.8574C60.4062 26.4414 60.1045 25.9521 59.8936 25.3896C59.6826 24.8271 59.5771 24.2207 59.5771 23.5703V23.2188C59.5771 22.4746 59.6855 21.8008 59.9023 21.1973C60.1191 20.5938 60.4209 20.0781 60.8076 19.6504C61.1943 19.2168 61.6514 18.8857 62.1787 18.6572C62.7061 18.4287 63.2773 18.3145 63.8926 18.3145C64.5723 18.3145 65.167 18.4287 65.6768 18.6572C66.1865 18.8857 66.6084 19.208 66.9424 19.624C67.2822 20.0342 67.5342 20.5234 67.6982 21.0918C67.8682 21.6602 67.9531 22.2871 67.9531 22.9727V23.8779H60.6055V22.3574H65.8613V22.1904C65.8496 21.8096 65.7734 21.4521 65.6328 21.1182C65.498 20.7842 65.29 20.5146 65.0088 20.3096C64.7275 20.1045 64.3525 20.002 63.8838 20.002C63.5322 20.002 63.2188 20.0781 62.9434 20.2305C62.6738 20.377 62.4482 20.5908 62.2666 20.8721C62.085 21.1533 61.9443 21.4932 61.8447 21.8916C61.751 22.2842 61.7041 22.7266 61.7041 23.2188V23.5703C61.7041 23.9863 61.7598 24.373 61.8711 24.7305C61.9883 25.082 62.1582 25.3896 62.3809 25.6533C62.6035 25.917 62.873 26.125 63.1895 26.2773C63.5059 26.4238 63.8662 26.4971 64.2705 26.4971C64.7803 26.4971 65.2344 26.3945 65.6328 26.1895C66.0312 25.9844 66.377 25.6943 66.6699 25.3193L67.7861 26.4004C67.5811 26.6992 67.3145 26.9863 66.9863 27.2617C66.6582 27.5312 66.2568 27.751 65.7822 27.9209C65.3135 28.0908 64.7686 28.1758 64.1475 28.1758ZM73.4902 26.4883C73.8359 26.4883 74.1465 26.4209 74.4219 26.2861C74.7031 26.1455 74.9287 25.9521 75.0986 25.7061C75.2744 25.46 75.3711 25.1758 75.3887 24.8535H77.3838C77.3721 25.4688 77.1904 26.0283 76.8389 26.5322C76.4873 27.0361 76.0215 27.4375 75.4414 27.7363C74.8613 28.0293 74.2197 28.1758 73.5166 28.1758C72.79 28.1758 72.1572 28.0527 71.6182 27.8066C71.0791 27.5547 70.6309 27.209 70.2734 26.7695C69.916 26.3301 69.6465 25.8232 69.4648 25.249C69.2891 24.6748 69.2012 24.0596 69.2012 23.4033V23.0957C69.2012 22.4395 69.2891 21.8242 69.4648 21.25C69.6465 20.6699 69.916 20.1602 70.2734 19.7207C70.6309 19.2812 71.0791 18.9385 71.6182 18.6924C72.1572 18.4404 72.7871 18.3145 73.5078 18.3145C74.2695 18.3145 74.9375 18.4668 75.5117 18.7715C76.0859 19.0703 76.5371 19.4893 76.8652 20.0283C77.1992 20.5615 77.3721 21.1826 77.3838 21.8916H75.3887C75.3711 21.54 75.2832 21.2236 75.125 20.9424C74.9727 20.6553 74.7559 20.4268 74.4746 20.2568C74.1992 20.0869 73.8682 20.002 73.4814 20.002C73.0537 20.002 72.6992 20.0898 72.418 20.2656C72.1367 20.4355 71.917 20.6699 71.7588 20.9688C71.6006 21.2617 71.4863 21.5928 71.416 21.9619C71.3516 22.3252 71.3193 22.7031 71.3193 23.0957V23.4033C71.3193 23.7959 71.3516 24.1768 71.416 24.5459C71.4805 24.915 71.5918 25.2461 71.75 25.5391C71.9141 25.8262 72.1367 26.0576 72.418 26.2334C72.6992 26.4033 73.0566 26.4883 73.4902 26.4883ZM81.1016 14.5V28H78.9922V14.5H81.1016ZM80.7324 22.8936L80.0469 22.8848C80.0527 22.2285 80.1436 21.6221 80.3193 21.0654C80.501 20.5088 80.7529 20.0254 81.0752 19.6152C81.4033 19.1992 81.7959 18.8799 82.2529 18.6572C82.71 18.4287 83.2168 18.3145 83.7734 18.3145C84.2422 18.3145 84.6641 18.3789 85.0391 18.5078C85.4199 18.6367 85.748 18.8447 86.0234 19.1318C86.2988 19.4131 86.5068 19.7822 86.6475 20.2393C86.7939 20.6904 86.8672 21.2412 86.8672 21.8916V28H84.7402V21.874C84.7402 21.417 84.6729 21.0537 84.5381 20.7842C84.4092 20.5146 84.2188 20.3213 83.9668 20.2041C83.7148 20.0811 83.4072 20.0195 83.0439 20.0195C82.6631 20.0195 82.3262 20.0957 82.0332 20.248C81.7461 20.4004 81.5059 20.6084 81.3125 20.8721C81.1191 21.1357 80.9727 21.4404 80.873 21.7861C80.7793 22.1318 80.7324 22.501 80.7324 22.8936Z" fill="#FF7A00"/>
<path d="M97.2383 26.251V28H90.8135V26.251H97.2383ZM91.4287 15.2031V28H89.2227V15.2031H91.4287ZM104.094 26.0928V21.5576C104.094 21.2178 104.032 20.9248 103.909 20.6787C103.786 20.4326 103.599 20.2422 103.347 20.1074C103.101 19.9727 102.79 19.9053 102.415 19.9053C102.069 19.9053 101.771 19.9639 101.519 20.0811C101.267 20.1982 101.07 20.3564 100.93 20.5557C100.789 20.7549 100.719 20.9805 100.719 21.2324H98.6094C98.6094 20.8574 98.7002 20.4941 98.8818 20.1426C99.0635 19.791 99.3271 19.4775 99.6729 19.2021C100.019 18.9268 100.432 18.71 100.912 18.5518C101.393 18.3936 101.932 18.3145 102.529 18.3145C103.244 18.3145 103.877 18.4346 104.428 18.6748C104.984 18.915 105.421 19.2783 105.737 19.7646C106.06 20.2451 106.221 20.8486 106.221 21.5752V25.8027C106.221 26.2363 106.25 26.626 106.309 26.9717C106.373 27.3115 106.464 27.6074 106.581 27.8594V28H104.41C104.311 27.7715 104.231 27.4814 104.173 27.1299C104.12 26.7725 104.094 26.4268 104.094 26.0928ZM104.401 22.2168L104.419 23.5264H102.898C102.506 23.5264 102.16 23.5645 101.861 23.6406C101.562 23.7109 101.313 23.8164 101.114 23.957C100.915 24.0977 100.766 24.2676 100.666 24.4668C100.566 24.666 100.517 24.8916 100.517 25.1436C100.517 25.3955 100.575 25.627 100.692 25.8379C100.81 26.043 100.979 26.2041 101.202 26.3213C101.431 26.4385 101.706 26.4971 102.028 26.4971C102.462 26.4971 102.84 26.4092 103.162 26.2334C103.49 26.0518 103.748 25.832 103.936 25.5742C104.123 25.3105 104.223 25.0615 104.234 24.8271L104.92 25.7676C104.85 26.0078 104.729 26.2656 104.56 26.541C104.39 26.8164 104.167 27.0801 103.892 27.332C103.622 27.5781 103.297 27.7803 102.916 27.9385C102.541 28.0967 102.107 28.1758 101.615 28.1758C100.994 28.1758 100.44 28.0527 99.9541 27.8066C99.4678 27.5547 99.0869 27.2178 98.8115 26.7959C98.5361 26.3682 98.3984 25.8848 98.3984 25.3457C98.3984 24.8418 98.4922 24.3965 98.6797 24.0098C98.873 23.6172 99.1543 23.2891 99.5234 23.0254C99.8984 22.7617 100.355 22.5625 100.895 22.4277C101.434 22.2871 102.049 22.2168 102.74 22.2168H104.401ZM110.554 20.4238V28H108.436V18.4902H110.431L110.554 20.4238ZM110.211 22.8936L109.49 22.8848C109.49 22.2285 109.572 21.6221 109.736 21.0654C109.9 20.5088 110.141 20.0254 110.457 19.6152C110.773 19.1992 111.166 18.8799 111.635 18.6572C112.109 18.4287 112.657 18.3145 113.278 18.3145C113.712 18.3145 114.107 18.3789 114.465 18.5078C114.828 18.6309 115.142 18.8271 115.405 19.0967C115.675 19.3662 115.88 19.7119 116.021 20.1338C116.167 20.5557 116.24 21.0654 116.24 21.6631V28H114.122V21.8477C114.122 21.3848 114.052 21.0215 113.911 20.7578C113.776 20.4941 113.58 20.3066 113.322 20.1953C113.07 20.0781 112.769 20.0195 112.417 20.0195C112.019 20.0195 111.679 20.0957 111.397 20.248C111.122 20.4004 110.896 20.6084 110.721 20.8721C110.545 21.1357 110.416 21.4404 110.334 21.7861C110.252 22.1318 110.211 22.501 110.211 22.8936ZM116.108 22.3311L115.115 22.5508C115.115 21.9766 115.194 21.4346 115.353 20.9248C115.517 20.4092 115.754 19.958 116.064 19.5713C116.381 19.1787 116.771 18.8711 117.233 18.6484C117.696 18.4258 118.227 18.3145 118.824 18.3145C119.311 18.3145 119.744 18.3818 120.125 18.5166C120.512 18.6455 120.84 18.8506 121.109 19.1318C121.379 19.4131 121.584 19.7793 121.725 20.2305C121.865 20.6758 121.936 21.2148 121.936 21.8477V28H119.809V21.8389C119.809 21.3584 119.738 20.9863 119.598 20.7227C119.463 20.459 119.27 20.2773 119.018 20.1777C118.766 20.0723 118.464 20.0195 118.112 20.0195C117.784 20.0195 117.494 20.0811 117.242 20.2041C116.996 20.3213 116.788 20.4883 116.618 20.7051C116.448 20.916 116.319 21.1592 116.231 21.4346C116.149 21.71 116.108 22.0088 116.108 22.3311ZM124.124 14.5H126.242V25.9697L126.04 28H124.124V14.5ZM132.447 23.1572V23.3418C132.447 24.0449 132.368 24.6924 132.21 25.2842C132.058 25.8701 131.823 26.3799 131.507 26.8135C131.196 27.2471 130.81 27.584 130.347 27.8242C129.89 28.0586 129.359 28.1758 128.756 28.1758C128.164 28.1758 127.648 28.0645 127.209 27.8418C126.77 27.6191 126.4 27.3027 126.102 26.8926C125.809 26.4824 125.571 25.9932 125.39 25.4248C125.208 24.8564 125.079 24.2295 125.003 23.5439V22.9551C125.079 22.2637 125.208 21.6367 125.39 21.0742C125.571 20.5059 125.809 20.0166 126.102 19.6064C126.4 19.1904 126.767 18.8711 127.2 18.6484C127.64 18.4258 128.152 18.3145 128.738 18.3145C129.348 18.3145 129.884 18.4316 130.347 18.666C130.815 18.9004 131.205 19.2344 131.516 19.668C131.826 20.0957 132.058 20.6055 132.21 21.1973C132.368 21.7891 132.447 22.4424 132.447 23.1572ZM130.329 23.3418V23.1572C130.329 22.7295 130.294 22.3281 130.224 21.9531C130.153 21.5723 130.036 21.2383 129.872 20.9512C129.714 20.6641 129.497 20.4385 129.222 20.2744C128.952 20.1045 128.615 20.0195 128.211 20.0195C127.836 20.0195 127.514 20.084 127.244 20.2129C126.975 20.3418 126.749 20.5176 126.567 20.7402C126.386 20.9629 126.242 21.2207 126.137 21.5137C126.037 21.8066 125.97 22.123 125.935 22.4629V24.0537C125.987 24.4932 126.099 24.8975 126.269 25.2666C126.444 25.6299 126.69 25.9229 127.007 26.1455C127.323 26.3623 127.73 26.4707 128.229 26.4707C128.621 26.4707 128.952 26.3916 129.222 26.2334C129.491 26.0752 129.705 25.8555 129.863 25.5742C130.027 25.2871 130.145 24.9531 130.215 24.5723C130.291 24.1914 130.329 23.7812 130.329 23.3418ZM140.041 26.0312V14.5H142.168V28H140.243L140.041 26.0312ZM133.854 23.3506V23.166C133.854 22.4453 133.938 21.7891 134.108 21.1973C134.278 20.5996 134.524 20.0869 134.847 19.6592C135.169 19.2256 135.562 18.8945 136.024 18.666C136.487 18.4316 137.009 18.3145 137.589 18.3145C138.163 18.3145 138.667 18.4258 139.101 18.6484C139.534 18.8711 139.903 19.1904 140.208 19.6064C140.513 20.0166 140.756 20.5088 140.938 21.083C141.119 21.6514 141.248 22.2842 141.324 22.9814V23.5703C141.248 24.25 141.119 24.8711 140.938 25.4336C140.756 25.9961 140.513 26.4824 140.208 26.8926C139.903 27.3027 139.531 27.6191 139.092 27.8418C138.658 28.0645 138.151 28.1758 137.571 28.1758C136.997 28.1758 136.479 28.0557 136.016 27.8154C135.559 27.5752 135.169 27.2383 134.847 26.8047C134.524 26.3711 134.278 25.8613 134.108 25.2754C133.938 24.6836 133.854 24.042 133.854 23.3506ZM135.972 23.166V23.3506C135.972 23.7842 136.01 24.1885 136.086 24.5635C136.168 24.9385 136.294 25.2695 136.464 25.5566C136.634 25.8379 136.854 26.0605 137.123 26.2246C137.398 26.3828 137.727 26.4619 138.107 26.4619C138.588 26.4619 138.983 26.3564 139.294 26.1455C139.604 25.9346 139.848 25.6504 140.023 25.293C140.205 24.9297 140.328 24.5254 140.393 24.0801V22.4893C140.357 22.1436 140.284 21.8213 140.173 21.5225C140.067 21.2236 139.924 20.9629 139.742 20.7402C139.561 20.5117 139.335 20.3359 139.065 20.2129C138.802 20.084 138.488 20.0195 138.125 20.0195C137.738 20.0195 137.41 20.1016 137.141 20.2656C136.871 20.4297 136.648 20.6553 136.473 20.9424C136.303 21.2295 136.177 21.5635 136.095 21.9443C136.013 22.3252 135.972 22.7324 135.972 23.166ZM149.744 26.0928V21.5576C149.744 21.2178 149.683 20.9248 149.56 20.6787C149.437 20.4326 149.249 20.2422 148.997 20.1074C148.751 19.9727 148.44 19.9053 148.065 19.9053C147.72 19.9053 147.421 19.9639 147.169 20.0811C146.917 20.1982 146.721 20.3564 146.58 20.5557C146.439 20.7549 146.369 20.9805 146.369 21.2324H144.26C144.26 20.8574 144.351 20.4941 144.532 20.1426C144.714 19.791 144.978 19.4775 145.323 19.2021C145.669 18.9268 146.082 18.71 146.562 18.5518C147.043 18.3936 147.582 18.3145 148.18 18.3145C148.895 18.3145 149.527 18.4346 150.078 18.6748C150.635 18.915 151.071 19.2783 151.388 19.7646C151.71 20.2451 151.871 20.8486 151.871 21.5752V25.8027C151.871 26.2363 151.9 26.626 151.959 26.9717C152.023 27.3115 152.114 27.6074 152.231 27.8594V28H150.061C149.961 27.7715 149.882 27.4814 149.823 27.1299C149.771 26.7725 149.744 26.4268 149.744 26.0928ZM150.052 22.2168L150.069 23.5264H148.549C148.156 23.5264 147.811 23.5645 147.512 23.6406C147.213 23.7109 146.964 23.8164 146.765 23.957C146.565 24.0977 146.416 24.2676 146.316 24.4668C146.217 24.666 146.167 24.8916 146.167 25.1436C146.167 25.3955 146.226 25.627 146.343 25.8379C146.46 26.043 146.63 26.2041 146.853 26.3213C147.081 26.4385 147.356 26.4971 147.679 26.4971C148.112 26.4971 148.49 26.4092 148.812 26.2334C149.141 26.0518 149.398 25.832 149.586 25.5742C149.773 25.3105 149.873 25.0615 149.885 24.8271L150.57 25.7676C150.5 26.0078 150.38 26.2656 150.21 26.541C150.04 26.8164 149.817 27.0801 149.542 27.332C149.272 27.5781 148.947 27.7803 148.566 27.9385C148.191 28.0967 147.758 28.1758 147.266 28.1758C146.645 28.1758 146.091 28.0527 145.604 27.8066C145.118 27.5547 144.737 27.2178 144.462 26.7959C144.187 26.3682 144.049 25.8848 144.049 25.3457C144.049 24.8418 144.143 24.3965 144.33 24.0098C144.523 23.6172 144.805 23.2891 145.174 23.0254C145.549 22.7617 146.006 22.5625 146.545 22.4277C147.084 22.2871 147.699 22.2168 148.391 22.2168H150.052ZM159.421 25.4248C159.421 25.2139 159.368 25.0234 159.263 24.8535C159.157 24.6777 158.955 24.5195 158.656 24.3789C158.363 24.2383 157.93 24.1094 157.355 23.9922C156.852 23.8809 156.389 23.749 155.967 23.5967C155.551 23.4385 155.193 23.248 154.895 23.0254C154.596 22.8027 154.364 22.5391 154.2 22.2344C154.036 21.9297 153.954 21.5781 153.954 21.1797C153.954 20.793 154.039 20.4268 154.209 20.0811C154.379 19.7354 154.622 19.4307 154.938 19.167C155.255 18.9033 155.639 18.6953 156.09 18.543C156.547 18.3906 157.057 18.3145 157.619 18.3145C158.416 18.3145 159.099 18.4492 159.667 18.7188C160.241 18.9824 160.681 19.3428 160.985 19.7998C161.29 20.251 161.442 20.7607 161.442 21.3291H159.324C159.324 21.0771 159.26 20.8428 159.131 20.626C159.008 20.4033 158.82 20.2246 158.568 20.0898C158.316 19.9492 158 19.8789 157.619 19.8789C157.256 19.8789 156.954 19.9375 156.714 20.0547C156.479 20.166 156.304 20.3125 156.187 20.4941C156.075 20.6758 156.02 20.875 156.02 21.0918C156.02 21.25 156.049 21.3936 156.107 21.5225C156.172 21.6455 156.277 21.7598 156.424 21.8652C156.57 21.9648 156.77 22.0586 157.021 22.1465C157.279 22.2344 157.602 22.3193 157.988 22.4014C158.715 22.5537 159.339 22.75 159.86 22.9902C160.388 23.2246 160.792 23.5293 161.073 23.9043C161.354 24.2734 161.495 24.7422 161.495 25.3105C161.495 25.7324 161.404 26.1191 161.223 26.4707C161.047 26.8164 160.789 27.1182 160.449 27.376C160.109 27.6279 159.702 27.8242 159.228 27.9648C158.759 28.1055 158.231 28.1758 157.646 28.1758C156.784 28.1758 156.055 28.0234 155.457 27.7188C154.859 27.4082 154.405 27.0127 154.095 26.5322C153.79 26.0459 153.638 25.542 153.638 25.0205H155.686C155.709 25.4131 155.817 25.7266 156.011 25.9609C156.21 26.1895 156.456 26.3564 156.749 26.4619C157.048 26.5615 157.355 26.6113 157.672 26.6113C158.053 26.6113 158.372 26.5615 158.63 26.4619C158.888 26.3564 159.084 26.2158 159.219 26.04C159.354 25.8584 159.421 25.6533 159.421 25.4248Z" fill="#3D3D3D"/>
<defs>
<clipPath id="clip0_2328_8743">
<rect width="39.5466" height="24.1071" fill="white" transform="translate(0 12)"/>
</clipPath>
</defs>
</svg>
