<svg width="13" height="13" viewBox="0 0 13 13" fill="none" xmlns="http://www.w3.org/2000/svg">
<path d="M1.55566 4.66699H10.8895V9.85244C10.8895 10.1275 10.7802 10.3913 10.5857 10.5858C10.3912 10.7803 10.1274 10.8895 9.85238 10.8895H2.59275C2.3177 10.8895 2.05391 10.7803 1.85942 10.5858C1.66493 10.3913 1.55566 10.1275 1.55566 9.85244V4.66699Z" stroke="#155DFC" stroke-width="1.03709" stroke-linecap="round" stroke-linejoin="round"/>
<path d="M1.55566 4.66696L2.8261 2.12609C2.91268 1.95427 3.04534 1.80993 3.20926 1.70919C3.37318 1.60846 3.56189 1.55531 3.75429 1.55569H8.69084C8.88411 1.55434 9.07392 1.60704 9.23884 1.70782C9.40377 1.80861 9.53724 1.95348 9.62422 2.12609L10.8895 4.66696" stroke="#155DFC" stroke-width="1.03709" stroke-linecap="round" stroke-linejoin="round"/>
<path d="M6.2229 1.55566V4.66693" stroke="#155DFC" stroke-width="1.03709" stroke-linecap="round" stroke-linejoin="round"/>
</svg>
