<svg width="17" height="17" viewBox="0 0 17 17" fill="none" xmlns="http://www.w3.org/2000/svg">
<g clip-path="url(#clip0_2049_6615)">
<path d="M10.1022 1.34766H6.0614C5.68946 1.34766 5.38794 1.64918 5.38794 2.02112V3.36804C5.38794 3.73999 5.68946 4.0415 6.0614 4.0415H10.1022C10.4741 4.0415 10.7756 3.73999 10.7756 3.36804V2.02112C10.7756 1.64918 10.4741 1.34766 10.1022 1.34766Z" stroke="#155DFC" stroke-width="1.34692" stroke-linecap="round" stroke-linejoin="round"/>
<path d="M10.776 2.69336H12.1229C12.4802 2.69336 12.8227 2.83527 13.0753 3.08786C13.3279 3.34046 13.4699 3.68306 13.4699 4.04028V13.4688C13.4699 13.826 13.3279 14.1686 13.0753 14.4212C12.8227 14.6738 12.4802 14.8157 12.1229 14.8157H4.04138C3.68416 14.8157 3.34156 14.6738 3.08896 14.4212C2.83637 14.1686 2.69446 13.826 2.69446 13.4688V4.04028C2.69446 3.68306 2.83637 3.34046 3.08896 3.08786C3.34156 2.83527 3.68416 2.69336 4.04138 2.69336H5.38831" stroke="#155DFC" stroke-width="1.34692" stroke-linecap="round" stroke-linejoin="round"/>
<path d="M8.08215 7.40918H10.7752" stroke="#155DFC" stroke-width="1.34692" stroke-linecap="round" stroke-linejoin="round"/>
<path d="M8.08215 10.7773H10.7752" stroke="#155DFC" stroke-width="1.34692" stroke-linecap="round" stroke-linejoin="round"/>
<path d="M5.38794 7.40918H5.39627" stroke="#155DFC" stroke-width="1.34692" stroke-linecap="round" stroke-linejoin="round"/>
<path d="M5.38794 10.7773H5.39627" stroke="#155DFC" stroke-width="1.34692" stroke-linecap="round" stroke-linejoin="round"/>
</g>
<defs>
<clipPath id="clip0_2049_6615">
<rect width="16.1631" height="16.1631" fill="white"/>
</clipPath>
</defs>
</svg>
