<svg width="13" height="13" viewBox="0 0 13 13" fill="none" xmlns="http://www.w3.org/2000/svg">
<path d="M7.7775 1.03711H4.66667C4.38032 1.03711 4.14819 1.26924 4.14819 1.55558V2.59253C4.14819 2.87887 4.38032 3.111 4.66667 3.111H7.7775C8.06384 3.111 8.29597 2.87887 8.29597 2.59253V1.55558C8.29597 1.26924 8.06384 1.03711 7.7775 1.03711Z" stroke="#00A63E" stroke-width="0.733969" stroke-linecap="round" stroke-linejoin="round"/>
<path d="M8.29638 2.07422H9.33332C9.60834 2.07422 9.87209 2.18347 10.0666 2.37793C10.261 2.5724 10.3703 2.83615 10.3703 3.11116V10.3698C10.3703 10.6448 10.261 10.9085 10.0666 11.103C9.87209 11.2975 9.60834 11.4067 9.33332 11.4067H3.11165C2.83664 11.4067 2.57289 11.2975 2.37842 11.103C2.18396 10.9085 2.07471 10.6448 2.07471 10.3698V3.11116C2.07471 2.83615 2.18396 2.5724 2.37842 2.37793C2.57289 2.18347 2.83664 2.07422 3.11165 2.07422H4.1486" stroke="#00A63E" stroke-width="0.733969" stroke-linecap="round" stroke-linejoin="round"/>
<path d="M6.22241 5.70508H8.2957" stroke="#00A63E" stroke-width="0.733969" stroke-linecap="round" stroke-linejoin="round"/>
<path d="M6.22241 8.29785H8.2957" stroke="#00A63E" stroke-width="0.733969" stroke-linecap="round" stroke-linejoin="round"/>
<path d="M4.14819 5.70508H4.15433" stroke="#00A63E" stroke-width="0.733969" stroke-linecap="round" stroke-linejoin="round"/>
<path d="M4.14819 8.29785H4.15433" stroke="#00A63E" stroke-width="0.733969" stroke-linecap="round" stroke-linejoin="round"/>
</svg>
