<svg width="20" height="20" viewBox="0 0 20 20" fill="none" xmlns="http://www.w3.org/2000/svg">
<path d="M3.23438 6.06008V2.42339C3.23438 2.20905 3.31952 2.0035 3.47108 1.85194C3.62264 1.70038 3.82819 1.61523 4.04253 1.61523H15.3567C15.571 1.61523 15.7766 1.70038 15.9281 1.85194C16.0797 2.0035 16.1648 2.20905 16.1648 2.42339V16.9702C16.1648 17.1845 16.0797 17.3901 15.9281 17.5416C15.7766 17.6932 15.571 17.7783 15.3567 17.7783H4.04253C3.82819 17.7783 3.62264 17.6932 3.47108 17.5416C3.31952 17.3901 3.23438 17.1845 3.23438 16.9702V13.3335" stroke="#2200FF" stroke-width="0.969786" stroke-linecap="round" stroke-linejoin="round"/>
<path d="M12.5275 6.06055H13.7398M11.3153 9.29316H13.7398M11.3153 12.5258H13.7398" stroke="#2200FF" stroke-width="0.969786" stroke-linecap="round"/>
<path d="M4.0419 8.48501L6.46636 10.9095M6.46636 8.48501L4.0419 10.9095M1.61743 6.06055H8.89082V13.3339H1.61743V6.06055Z" stroke="#2200FF" stroke-width="0.969786" stroke-linecap="round" stroke-linejoin="round"/>
</svg>
