<svg width="34" height="34" viewBox="0 0 34 34" fill="none" xmlns="http://www.w3.org/2000/svg">
<path d="M22.0151 14.6328C22.0151 16.0915 21.4357 17.4904 20.4042 18.5219C19.3728 19.5534 17.9738 20.1328 16.5151 20.1328C15.0564 20.1328 13.6575 19.5534 12.626 18.5219C11.5946 17.4904 11.0151 16.0915 11.0151 14.6328C11.0151 13.1741 11.5946 11.7752 12.626 10.7437C13.6575 9.71227 15.0564 9.13281 16.5151 9.13281C17.9738 9.13281 19.3728 9.71227 20.4042 10.7437C21.4357 11.7752 22.0151 13.1741 22.0151 14.6328Z" fill="white"/>
<path fill-rule="evenodd" clip-rule="evenodd" d="M15.9541 31.1218C8.62057 30.8276 2.76514 24.7886 2.76514 17.3828C2.76514 9.78869 8.92101 3.63281 16.5151 3.63281C24.1093 3.63281 30.2651 9.78869 30.2651 17.3828C30.2651 24.9769 24.1093 31.1328 16.5151 31.1328H16.3268C16.2021 31.1328 16.0779 31.1291 15.9541 31.1218ZM7.69176 26.0591C7.58896 25.7638 7.55396 25.4492 7.58938 25.1386C7.6248 24.828 7.72972 24.5294 7.89635 24.2649C8.06298 24.0004 8.28704 23.7768 8.55191 23.6107C8.81678 23.4447 9.11564 23.3404 9.42632 23.3056C14.7861 22.7123 18.2772 22.7659 23.6108 23.318C23.9219 23.3504 24.2215 23.4534 24.4868 23.619C24.7521 23.7847 24.9761 24.0088 25.1417 24.2741C25.3073 24.5394 25.4102 24.8391 25.4425 25.1502C25.4748 25.4613 25.4357 25.7757 25.3282 26.0694C27.6142 23.7566 28.8944 20.6347 28.8901 17.3828C28.8901 10.5484 23.3496 5.00781 16.5151 5.00781C9.6807 5.00781 4.14014 10.5484 4.14014 17.3828C4.14014 20.7626 5.4952 23.8261 7.69176 26.0591Z" fill="white"/>
</svg>
