<svg width="154" height="94" viewBox="0 0 154 94" fill="none" xmlns="http://www.w3.org/2000/svg">
<g clip-path="url(#clip0_682_2)">
<mask id="mask0_682_2" style="mask-type:luminance" maskUnits="userSpaceOnUse" x="0" y="0" width="154" height="94">
<path d="M153.344 0.501953H0.429688V93.7163H153.344V0.501953Z" fill="white"/>
</mask>
<g mask="url(#mask0_682_2)">
<path d="M153.344 41.8823C153.372 43.1831 153.119 44.4301 152.75 45.654C152.261 47.2825 151.557 48.824 150.743 50.3117C149.301 52.9413 147.557 55.3662 145.675 57.6937C144.403 59.2685 143.066 60.7843 141.689 62.2669C139.901 64.1924 138.045 66.0462 136.135 67.8489C133.193 70.6271 130.14 73.2823 127.004 75.8403C121.857 80.0345 116.526 83.9778 110.954 87.5882C108.675 89.0656 106.356 90.4739 103.946 91.7311C102.768 92.3456 101.572 92.9295 100.307 93.3545C99.8748 93.5005 99.442 93.6387 98.9837 93.6797C98.912 93.6848 98.8403 93.713 98.7686 93.7104C97.9876 93.6797 97.8366 93.3417 98.0004 92.74C98.0901 92.4122 98.2565 92.0973 98.4306 91.8003C99.017 90.8068 99.757 89.9285 100.51 89.0605C101.992 87.3551 103.495 85.6652 104.955 83.9419C106.758 81.8141 108.504 79.6402 110.207 77.433C112.368 74.6343 114.449 71.7793 116.429 68.8475C118.295 66.0821 120.052 63.2501 121.66 60.326C123.199 57.5299 124.582 54.6595 125.683 51.6611C126.31 49.9506 126.853 48.2146 127.211 46.4247C127.398 45.4978 127.552 44.5658 127.636 43.6209C127.7 42.9296 127.723 42.2408 127.718 41.5469C127.708 39.8441 127.434 38.1772 127.011 36.5308C126.428 34.2621 125.534 32.1138 124.461 30.0347C123.388 27.958 122.144 25.989 120.782 24.0916C119.069 21.7052 117.212 19.4365 115.207 17.2882C114.137 16.1437 113.069 14.994 111.955 13.8929C110.038 11.9956 108.053 10.1699 106.005 8.41081C104.248 6.90264 102.448 5.44825 100.625 4.02202C99.8927 3.44846 99.1681 2.86466 98.5356 2.18099C98.3026 1.92749 98.0747 1.65864 97.8929 1.36929C97.5984 0.900713 97.7393 0.626734 98.2821 0.521752C98.6892 0.442375 99.0836 0.552478 99.4728 0.621613C100.748 0.854623 101.969 1.28224 103.183 1.72777C105.423 2.54971 107.62 3.48431 109.771 4.51365C111.825 5.4969 113.873 6.49296 115.896 7.53766C119.975 9.65012 123.952 11.9418 127.839 14.3923C131.28 16.561 134.632 18.8527 137.858 21.3313C139.55 22.6321 141.202 23.9764 142.792 25.4001C143.88 26.3731 144.951 27.3614 145.965 28.4087C147.716 30.219 149.36 32.1189 150.725 34.2442C151.495 35.4451 152.159 36.6972 152.645 38.0415C153.093 39.2834 153.383 40.556 153.339 41.8772L153.344 41.8823Z" fill="#F2AA4C"/>
<path d="M81.5341 47.5064C81.3728 47.5218 81.273 47.3963 81.1475 47.3323C77.4731 45.5169 73.7603 43.7936 69.8631 42.5082C67.1976 41.6274 64.4834 40.9386 61.7129 40.4726C59.9692 40.1781 58.2178 39.9631 56.4535 39.8171C54.4538 39.6507 52.4488 39.5918 50.4439 39.6174C48.8564 39.6379 47.2791 39.7966 45.7069 40.0194C41.3463 40.6339 37.1188 41.7938 32.9477 43.174C28.5205 44.6361 24.1906 46.3542 19.9145 48.2029C16.2555 49.7853 12.6195 51.4138 8.9707 53.0167C7.28841 53.7567 5.59845 54.4814 3.8624 55.0857C3.19153 55.3187 2.51555 55.5363 1.8114 55.649C1.56046 55.69 1.30185 55.7053 1.05091 55.6848C0.569529 55.6464 0.362125 55.3853 0.461986 54.909C0.523439 54.612 0.636103 54.3124 0.779494 54.0435C1.15077 53.3547 1.53998 52.6762 1.94711 52.0053C3.85984 48.8533 6.03887 45.8882 8.39713 43.0562C11.649 39.1539 15.2108 35.5563 19.1182 32.3096C22.8028 29.2497 26.7307 26.556 30.9966 24.3667C34.4098 22.6128 37.9638 21.2301 41.6971 20.3236C43.5228 19.8807 45.3689 19.5606 47.2381 19.3711C48.8922 19.2047 50.5464 19.1355 52.2082 19.1893C52.2082 19.5119 52.3311 19.7962 52.4898 20.0625C52.7792 20.5464 53.0685 21.0329 53.3886 21.4964C54.487 23.089 55.711 24.5818 56.9733 26.0465C60.1407 29.726 63.5488 33.1699 67.1566 36.4167C70.4802 39.4074 73.9549 42.2061 77.6523 44.7231C78.8276 45.522 80.0311 46.2748 81.2217 47.0481C81.2653 47.1377 81.3344 47.1838 81.4368 47.1736C81.4804 47.2043 81.5239 47.2325 81.5674 47.2606L81.5649 47.2581C81.5623 47.3349 81.5572 47.4143 81.5546 47.4911L81.5393 47.5064H81.5341Z" fill="#101820"/>
<path d="M81.2168 47.0477C80.0261 46.2744 78.8201 45.5216 77.6474 44.7227C73.9499 42.2057 70.4752 39.407 67.1517 36.4163C63.5438 33.1695 60.1357 29.7256 56.9683 26.0461C55.7086 24.5814 54.4821 23.0886 53.3836 21.496C53.0635 21.0325 52.7716 20.546 52.4848 20.0621C52.3261 19.7958 52.2006 19.509 52.2032 19.1889C52.6205 19.1761 53.0405 19.1326 53.4502 19.2606C53.5167 19.2811 53.5935 19.276 53.6678 19.2785C54.3054 19.2836 54.9302 19.404 55.56 19.4782C56.1362 19.5448 56.7123 19.6114 57.2833 19.7189C58.031 19.8572 58.7812 19.9852 59.5289 20.1389C60.3099 20.3002 61.0908 20.4692 61.8667 20.6612C63.7897 21.1426 65.6845 21.7239 67.5613 22.3589C69.4741 23.0067 71.3612 23.7236 73.2304 24.4892C74.6438 25.0679 76.0419 25.6901 77.44 26.3047C78.5717 26.804 79.6958 27.3212 80.825 27.8282C82.1027 28.4018 83.3881 28.96 84.6607 29.5438C86.3968 30.3401 88.1533 31.0903 89.9354 31.7791C91.208 32.2708 92.4934 32.7317 93.8121 33.0825C94.4446 33.2514 95.0719 33.4435 95.712 33.5587C96.4059 33.6842 97.0973 33.8481 97.8142 33.8378C98.101 33.8327 98.3904 33.9198 98.6797 33.9249C99.6476 33.9402 100.6 33.8122 101.532 33.5562C101.801 33.4819 101.973 33.5382 102.17 33.7149C102.669 34.1656 103.186 34.5957 103.696 35.0336C103.724 35.0566 103.75 35.0822 103.775 35.1078C104.787 36.1065 105.875 37.0231 106.84 38.0678C107.396 38.6696 107.921 39.2969 108.476 39.8961C109.035 40.4953 109.534 41.1456 110.031 41.7934C110.932 42.9636 111.736 44.1978 112.35 45.5472C112.653 46.2104 112.893 46.8992 113.026 47.6136C113.09 47.9669 113.044 48.3408 113.067 48.7044C113.131 49.7542 112.699 50.6145 112.046 51.3853C111.918 51.5338 111.741 51.6439 111.585 51.7668C111.096 52.1483 110.584 52.4812 109.995 52.7065C109.024 53.0752 108.044 53.3927 107.007 53.5285C106.469 53.6001 105.929 53.677 105.391 53.7512C104.756 53.8383 104.113 53.7819 103.488 53.8664C102.815 53.9586 102.144 53.9356 101.473 53.9407C101.222 53.9407 100.969 53.8946 100.715 53.869C100.644 53.8613 100.569 53.8434 100.498 53.8511C99.8576 53.8972 99.2277 53.7691 98.5952 53.7205C98.0729 53.6795 97.5505 53.5848 97.0384 53.4772C96.114 53.2852 95.1922 53.088 94.2781 52.8576C93.0772 52.5554 91.9045 52.1662 90.7497 51.7207C89.9354 51.4058 89.1212 51.0908 88.3146 50.7579C87.6412 50.4814 86.978 50.1793 86.3148 49.8822C86.1842 49.8233 86.0664 49.7337 85.9435 49.6569C85.3828 49.3445 84.822 49.027 84.2561 48.7197C83.8311 48.4893 83.3983 48.2716 82.9707 48.0489C82.6814 47.8773 82.3895 47.7083 82.1002 47.5368C82.0054 47.4804 81.9107 47.4369 81.8006 47.483C81.7698 47.355 81.7058 47.2653 81.5599 47.2679L81.5624 47.2705C81.5189 47.2423 81.4754 47.2116 81.4319 47.1834C81.3602 47.1424 81.2885 47.0989 81.2168 47.0579V47.0477Z" fill="#CFCFCF"/>
<path d="M42.1417 72.7149C42.1674 70.8944 42.2903 69.2044 42.4593 67.5196C42.6231 65.8706 42.7742 64.219 42.956 62.5726C43.1301 61.0132 43.2121 59.4513 43.1327 57.8817C43.0994 57.262 43.0507 56.6449 43.0072 56.0278C42.9586 55.3186 42.8997 54.6118 42.8587 53.9026C42.81 53.0627 42.8587 52.228 43.0175 51.4009C43.2889 50.0054 44.0596 48.9812 45.3143 48.3155C46.0773 47.9109 46.8941 47.6651 47.7365 47.5012C48.7761 47.2989 49.826 47.1734 50.8835 47.1606C51.9947 47.1478 53.1086 47.135 54.2173 47.1786C55.5667 47.2298 56.9059 47.3962 58.1964 47.8238C58.5754 47.9493 58.9492 48.0978 59.3077 48.277C60.716 48.9838 61.5046 50.1386 61.7428 51.6877C61.9015 52.7222 61.8657 53.7592 61.7965 54.7962C61.6967 56.3044 61.5098 57.81 61.5354 59.3233C61.5507 60.2143 61.6173 61.1054 61.6941 61.9939C61.8068 63.2639 61.9553 64.5289 62.0756 65.7989C62.2113 67.2302 62.3599 68.6641 62.452 70.0981C62.5545 71.6984 62.6287 73.2987 62.5519 74.9042C62.5007 75.9771 62.4418 77.0499 62.2907 78.1151C62.0577 79.7436 61.6864 81.3337 60.9797 82.8291C60.7928 83.2234 60.5854 83.6101 60.3549 83.9788C59.172 85.8762 57.4948 87.1104 55.3183 87.6404C53.2059 88.1551 51.0934 88.1397 48.9989 87.5354C47.1246 86.9951 45.6446 85.8967 44.5461 84.2886C43.7856 83.1799 43.2838 81.9534 42.9304 80.6654C42.5668 79.3442 42.3696 77.9974 42.2493 76.6326C42.1315 75.2857 42.1392 73.9389 42.1417 72.7149Z" fill="#101820"/>
<path d="M82.9706 48.0405C83.4008 48.2633 83.8309 48.4809 84.256 48.7114C84.8219 49.0187 85.3801 49.3362 85.9434 49.6486C84.996 49.2107 84.0486 48.7728 83.1012 48.3324C82.9885 48.2787 82.8835 48.207 82.7734 48.1455C82.8477 48.1276 82.9424 48.1455 82.9706 48.0405Z" fill="#6E7276"/>
<path d="M82.9699 48.039C82.9417 48.144 82.8496 48.1286 82.7727 48.144C82.4015 47.9596 82.0276 47.7778 81.6562 47.5934C81.6793 47.555 81.6999 47.5166 81.7229 47.4782C81.7485 47.4782 81.7767 47.4757 81.8023 47.4705C81.9124 47.4244 82.0071 47.468 82.1019 47.5243C82.3912 47.6959 82.6806 47.8674 82.9725 48.0364L82.9699 48.039Z" fill="#41494F"/>
<path d="M81.7258 47.4775C81.7022 47.517 81.6811 47.5564 81.6575 47.5958C81.6154 47.5669 81.5734 47.5354 81.5312 47.5064L81.5471 47.4907C81.6076 47.4881 81.6654 47.4828 81.7258 47.4802V47.4775Z" fill="#111A21"/>
<path d="M81.7219 47.4798C81.6627 47.4824 81.6061 47.4875 81.5469 47.4901C81.5494 47.4129 81.5546 47.3331 81.5572 47.2559C81.7039 47.2559 81.7682 47.3434 81.7991 47.4721C81.7734 47.4772 81.7477 47.4798 81.7193 47.4798H81.7219Z" fill="#653B41"/>
<path d="M81.2188 47.0483C81.2903 47.0893 81.362 47.1328 81.4337 47.1738C81.3313 47.1815 81.2622 47.138 81.2188 47.0483Z" fill="#653B41"/>
</g>
</g>
<defs>
<clipPath id="clip0_682_2">
<rect width="154" height="94" fill="white"/>
</clipPath>
</defs>
</svg>
